<svg width="114px" height="157px" viewBox="0 0 114 157" version="1.1" xmlns="http://www.w3.org/2000/svg" xmlns:xlink="http://www.w3.org/1999/xlink">
    <defs></defs>
    <g id="Page-1" stroke="none" stroke-width="1" fill="none" fill-rule="evenodd">
        <g id="jenkins">
            <g id="g10" transform="translate(57.000000, 78.500000) scale(-1, 1) rotate(-180.000000) translate(-57.000000, -78.500000) ">
                <g id="g3393">
                    <path d="M111.932884,81.177792 C111.932884,50.1365056 87.2591271,24.9722944 56.8223867,24.9722944 C26.3861503,24.9722944 1.71236188,50.1365056 1.71236188,81.177792 C1.71236188,112.219832 26.3861503,137.38442 56.8223867,137.38442 C87.2591271,137.38442 111.932884,112.219832 111.932884,81.177792" id="path22" fill="#D33833"></path>
                    <path d="M3.95811779,67.257544 C3.95811779,67.257544 -0.0314917127,125.870668 54.1345061,127.545544 L50.3557525,133.825544 L20.9636552,123.986668 L12.5656972,114.357544 L5.2177863,100.331792 L1.01856166,84.003792 L2.27823017,73.118668" id="path24" fill="#EF3D3A" fill-rule="nonzero"></path>
                    <path d="M19.0766088,119.520332 C9.40739337,109.655708 3.42398685,96.035644 3.42398685,80.96804 C3.42398685,65.903576 9.40739337,52.2817536 19.0766088,42.4189508 C28.7504851,32.556148 42.0825017,26.4702 56.8216309,26.4702 C71.5611381,26.4702 84.8940994,32.556148 94.5670939,42.4189508 C104.23568,52.2817536 110.220365,65.903576 110.220365,80.96804 C110.220365,96.035644 104.23568,109.655708 94.5670939,119.520332 C84.8940994,129.381188 71.5611381,135.467136 56.8216309,135.468392 C42.0825017,135.467136 28.7504851,129.381188 19.0766088,119.520332 Z M16.6290729,40.0330532 C6.35294917,50.5117984 0,64.993604 0,80.96804 C0,96.944988 6.35294917,111.425412 16.6290729,121.904848 C26.9028033,132.386168 41.1242718,138.882828 56.8216309,138.880944 C72.519116,138.882828 86.7420331,132.386168 97.014,121.904848 C107.291006,111.425412 113.644773,96.943732 113.643514,80.96804 C113.644773,64.993604 107.291006,50.5117984 97.014,40.0330532 C86.7420331,29.5522984 72.519116,23.0564548 56.8216309,23.0564548 C41.1242718,23.0564548 26.9028033,29.5522984 16.6290729,40.0330532 Z" id="path26" fill="#231F20" fill-rule="nonzero"></path>
                    <polyline id="path28" fill="#F0D6B7" points="80.0210718 80.866304 71.6228619 79.610304 60.2857193 78.354304 52.9373171 78.14518 45.7995315 78.354304 40.340632 80.02918 35.5118188 85.262304 31.7328133 95.938304 30.8931182 98.24118 25.8544442 99.915428 22.9151337 104.730304 20.8157702 111.638304 23.1254983 117.70918 28.583642 119.59318 32.9924818 117.499428 35.0923492 112.894304 37.6116862 113.31318 38.4511293 114.359428 37.6116862 119.174304 37.4013215 125.24518 38.6609901 133.618304 38.6118 138.401152 42.4399956 144.503428 49.1583116 149.318304 60.9155536 154.342304 73.9318343 152.458304 85.2688508 144.294304 90.5178895 135.92118 93.8767956 129.850304 94.7163646 114.778304 92.1970276 101.799428 87.578453 90.286304 83.1696133 84.215428"></polyline>
                    <polyline id="path30" fill="#335061" points="72.8825304 44.652056 42.8599691 43.396056 42.8599691 38.372056 45.3793061 20.788056 44.1196376 19.322304 23.1254983 26.440056 21.6554652 28.952056 19.5561017 52.606304 14.7280442 66.84118 13.6779845 70.190304 30.4731448 81.703428 35.7221834 83.79718 40.340632 78.14518 44.3294983 74.586304 48.9487028 73.12118 51.0478144 72.49318 53.5671514 61.608056 55.4566541 59.3053056 60.2857193 60.980056 56.9261834 54.490304 75.1915028 45.908056 72.8825304 44.652056"></polyline>
                    <polyline id="path32" fill="#6D6B6D" points="23.1254983 117.70918 28.583642 119.59318 32.9924818 117.499428 35.0923492 112.894304 37.6116862 113.31318 38.2415204 115.82518 36.9818519 120.639428 38.2415204 132.15318 37.1914608 138.43318 40.9704663 142.82918 49.1583116 149.318304 46.8488354 152.458304 35.301958 146.806304 30.4731448 143.038304 27.743947 137.17718 23.544968 131.52518 22.2852994 124.826304 23.1254983 117.70918"></polyline>
                    <path d="M31.7328133,137.386304 C31.7328133,137.386304 34.8819845,145.131428 47.4786696,148.899428 C60.0753547,152.667428 48.1085039,151.62118 48.1085039,151.62118 L34.4625149,146.387428 L29.2134762,141.154304 L26.9045039,136.967428 L31.7328133,137.386304" id="path34" fill="#DCD9D8"></path>
                    <path d="M25.4344707,119.174304 C25.4344707,119.174304 21.0256309,133.828056 37.821295,135.92118 L37.1914608,138.43318 L25.6448354,135.711428 L22.2852994,124.826304 L23.1254983,117.70918 L25.4344707,119.174304" id="path36" fill="#DCD9D8"></path>
                    <path d="M32.1527867,99.706304 L34.9016983,102.362116 C34.9016983,102.362116 36.1424088,102.218304 36.3520177,100.75318 C36.5616265,99.287428 37.1914608,86.099428 46.2190011,78.981676 C47.0424464,78.332324 39.501189,80.02918 39.501189,80.02918 L32.782621,90.495428" id="path38" fill="#F7E4CD"></path>
                    <path d="M70.7839227,103.683428 C70.7839227,103.683428 71.2733039,110.02874 72.9870829,109.540784 C74.7008619,109.052828 74.7008619,107.34404 74.7008619,107.34404 C74.7008619,107.34404 70.5389171,104.65934 70.7839227,103.683428" id="path40" fill="#F7E4CD"></path>
                    <path d="M88.2082873,126.919428 C88.2082873,126.919428 84.7479779,126.190948 84.4292818,123.151428 C84.1105856,120.11128 88.2082873,122.523428 88.8381215,122.732552" id="path42" fill="#F7E4CD" fill-rule="nonzero"></path>
                    <path d="M62.8050564,126.709676 C62.8050564,126.709676 58.1858519,126.081676 58.1858519,123.151428 C58.1858519,120.220552 63.4350166,120.429676 64.9044199,121.685676" id="path44" fill="#F7E4CD" fill-rule="nonzero"></path>
                    <path d="M34.2521503,113.103428 C34.2521503,113.103428 26.2739138,117.918304 25.4344707,113.312552 C24.5947757,108.707428 22.7047691,105.357676 26.6941392,100.543428 L23.9649414,101.380552 L21.4456044,107.869676 L20.6061613,114.149676 L25.4344707,119.174304 L30.8931182,118.755428 L34.0422895,116.243428 L34.2521503,113.103428" id="path46" fill="#F7E4CD"></path>
                    <path d="M38.0311558,126.291428 C38.0311558,126.291428 41.6003006,144.712552 59.6558851,148.271428 C74.5207293,151.201048 82.3294144,147.643428 85.2688508,144.294304 C85.2688508,144.294304 72.0423315,159.993676 59.4455204,155.179428 C46.8488354,150.364552 37.6116862,141.572552 37.821295,135.92118 C38.178789,126.295196 38.0311558,126.291428 38.0311558,126.291428" id="path48" fill="#F7E4CD"></path>
                    <path d="M86.738884,142.20118 C86.738884,142.20118 80.6509061,142.410304 80.4405414,136.967428 C80.4405414,136.967428 80.4399116,136.130304 80.860011,135.29318 C80.860011,135.29318 85.6895801,140.736056 88.6283867,137.80518" id="path50" fill="#F7E4CD"></path>
                    <path d="M60.0790707,134.726096 C60.0790707,134.726096 59.0309635,143.08038 51.8875094,138.223428 C47.2688088,135.083428 47.6890343,130.687428 48.5284773,129.850304 C49.3681724,129.012552 49.1398575,127.326372 49.7790762,128.483776 C50.4179801,129.64118 50.2076155,133.40918 52.5173436,134.455428 C54.8268199,135.502304 58.6126906,136.67164 60.0790707,134.726096" id="path52" fill="#F7E4CD"></path>
                    <path d="M40.340632,78.14518 L20.6061613,69.35318 C20.6061613,69.35318 28.7940066,36.906304 24.5947757,26.858304 L21.6554652,27.904552 L21.4456044,40.2555536 L15.9877127,63.700552 L13.6779845,70.190304 L34.2521503,84.005676 L40.340632,78.14518" id="path54" fill="#49728B"></path>
                    <path d="M42.369895,60.1986984 L45.1696972,56.792552 L45.1696972,44.232552 L41.8101613,44.232552 C41.8101613,44.232552 41.3906917,53.024552 41.3906917,54.0715536 C41.3906917,55.118304 41.8101613,58.886304 41.8101613,58.886304" id="path56" fill="#49728B"></path>
                    <polyline id="path58" fill="#49728B" points="42.4399956 42.348552 32.9924818 41.930304 35.7221834 40.046304 42.4399956 38.9995536"></polyline>
                    <polyline id="path60" fill="#335061" points="74.7720331 44.442304 82.539779 44.6515536 84.4292818 25.392552 76.4511713 24.346304 74.7720331 44.442304"></polyline>
                    <path d="M76.8712707,44.442304 L88.6283867,45.070304 C88.6283867,45.070304 93.4566961,57.2115536 93.4566961,57.8395536 C93.4566961,58.4675536 97.6558011,75.423428 97.6558011,75.423428 L88.2082873,85.261676 L86.3187845,86.936552 L81.2801105,81.912552 L81.2801105,62.444552 L76.8712707,44.442304" id="path62" fill="#335061"></path>
                    <path d="M82.1196796,45.9075536 L74.7720331,44.442304 L75.821337,38.580552 C78.5504088,37.324552 83.1696133,40.674304 83.1696133,40.674304" id="path64" fill="#49728B"></path>
                    <polyline id="path66" fill="#49728B" points="82.3300442 82.540552 97.0259669 71.655428 97.4460663 76.679428 86.3187845 86.936552 82.3300442 82.540552"></polyline>
                    <polyline id="path68" fill="#FFFFFF" points="49.7259182 3.2015754 45.3793061 20.788056 43.217463 33.7642944 42.8599691 43.396056 62.532716 44.4402944 74.7720331 44.442304 73.659116 22.4602944 75.5486188 5.50431952 75.338884 2.36431952 59.3835448 1.10831952 49.7259182 3.2015754"></polyline>
                    <path d="M72.0423315,44.6515536 C72.0423315,44.6515536 70.9930276,22.880552 74.1421989,7.390304 C74.1421989,7.390304 67.8438564,3.41253944 58.6058254,2.36628516 L76.2414365,2.99428516 L78.340674,4.25028516 L75.821337,38.580552 L75.1915028,45.908056" id="path70" fill="#DCD9D8"></path>
                    <polyline id="path72" fill="#FFFFFF" points="84.7870276 27.065544 92.9748729 29.3682944 108.510365 30.205544 110.819967 37.3226052 106.620862 49.673544 101.792552 50.301544 95.0741105 48.2082944 88.6283867 45.070304 85.2064972 45.6962944 82.539779 44.6515536"></polyline>
                    <path d="M84.6390166,31.254304 C84.6390166,31.254304 90.0971602,33.7658016 90.9373591,33.556552 L88.6283867,45.070304 L91.3574586,46.116552 C91.3574586,46.116552 93.2469613,35.2315536 93.2469613,33.9755536 C93.2469613,33.9755536 105.003448,33.3475536 106.053381,33.3475536 C106.053381,33.3475536 108.572718,38.162304 107.942884,43.186304 L110.252486,36.4875536 L110.462221,32.7195536 L107.103315,27.6955536 L103.324309,26.858304 L97.0259669,27.0675536 L94.9267293,29.788552 L87.578453,28.742304 L85.2688508,27.904552" id="path74" fill="#DCD9D8"></path>
                    <path d="M76.3888177,46.1146052 L71.7702431,57.837544 L66.9413039,64.745544 C66.9413039,64.745544 67.9906077,67.67642 69.4606409,67.67642 C70.930674,67.67642 74.2895801,67.67642 74.2895801,67.67642 L78.9081547,66.001544 L78.4886851,58.2562944 L76.3888177,46.1146052" id="path76" fill="#FFFFFF" fill-rule="nonzero"></path>
                    <path d="M77.2913702,50.094304 C77.2913702,50.094304 71.4124972,61.3978016 71.4124972,63.072552 C71.4124972,63.072552 72.4618011,65.584552 73.9318343,64.956552 C75.4018674,64.328552 78.5510387,62.654304 78.5510387,62.654304 L78.5510387,66.631428 L71.4124972,68.09718 L66.5841878,67.46918 L74.7720331,48.210304 L76.4511713,48.000552" id="path78" fill="#DCD9D8"></path>
                    <polyline id="path80" fill="#FFFFFF" fill-rule="nonzero" points="51.6156729 77.723792 45.7995315 78.354304 40.340632 80.02918 40.340632 78.14518 43.0078541 75.21242 51.4055602 71.44442"></polyline>
                    <path d="M42.2308906,77.09642 C42.2308906,77.09642 48.7395978,74.374668 50.8389613,75.002668 L51.0478144,72.49318 L45.170453,73.746668 L41.6010564,76.258668 L42.2308906,77.09642" id="path82" fill="#DCD9D8"></path>
                    <path d="M84.7643536,66.96364 C81.202011,67.067888 77.983558,67.489904 75.1656796,68.28244 C75.3571492,69.434192 74.9987735,70.564592 75.2866077,71.39418 C76.072011,71.958124 77.3883646,71.949332 78.5756022,72.08184 C77.5489724,72.584868 76.1066519,72.783944 74.9219337,72.49318 C74.894221,73.292624 74.5345856,73.788116 74.316663,74.413604 C76.3195359,75.126384 81.0477017,79.799332 83.7074917,78.25194 C84.9747182,77.515924 85.5132265,73.312092 85.6114807,71.267952 C85.6933591,69.572352 85.4571713,67.86168 84.7643536,66.96364" id="path84" fill="#D33833"></path>
                    <path d="M84.7643536,66.96364 C81.202011,67.067888 77.983558,67.489904 75.1656796,68.28244 C75.3571492,69.434192 74.9987735,70.564592 75.2866077,71.39418 C76.072011,71.958124 77.3883646,71.949332 78.5756022,72.08184 C77.5489724,72.584868 76.1066519,72.783944 74.9219337,72.49318 C74.894221,73.292624 74.5345856,73.788116 74.316663,74.413604 C76.3195359,75.126384 81.0477017,79.799332 83.7074917,78.25194 C84.9747182,77.515924 85.5132265,73.312092 85.6114807,71.267952 C85.6933591,69.572352 85.4571713,67.86168 84.7643536,66.96364 Z" id="path86" stroke="#D33833" stroke-width="2.5"></path>
                    <path d="M67.7292265,72.770128 C67.719779,72.501344 67.708442,72.230676 67.6977348,71.95938 C66.5854475,71.2309 64.7897901,71.239692 63.5691713,70.627392 C65.3686077,70.548892 66.785105,70.116828 68.0107624,69.507668 C67.9836796,68.830684 67.9578564,68.154328 67.9314033,67.477344 C65.8926298,66.085696 64.0302099,64.013296 61.6297856,62.7082492 C60.4948243,62.0910508 56.5116265,60.5029016 55.3041083,60.7835548 C54.6209271,60.941748 54.5593923,61.7870988 54.2862961,62.5839052 C53.7044552,64.290244 52.3647978,67.006344 52.2479635,69.574864 C52.0991337,72.819112 51.7706751,78.256336 55.2770884,77.588144 C58.105926,77.049948 61.3960541,75.750616 63.5861768,74.557416 C64.9245746,73.82768 65.6986409,72.925872 67.7292265,72.770128" id="path88" fill="#D33833"></path>
                    <path d="M67.7292265,72.770128 C67.719779,72.501344 67.708442,72.230676 67.6977348,71.95938 C66.5854475,71.2309 64.7897901,71.239692 63.5691713,70.627392 C65.3686077,70.548892 66.785105,70.116828 68.0107624,69.507668 C67.9836796,68.830684 67.9578564,68.154328 67.9314033,67.477344 C65.8926298,66.085696 64.0302099,64.013296 61.6297856,62.7082492 C60.4948243,62.0910508 56.5116265,60.5029016 55.3041083,60.7835548 C54.6209271,60.941748 54.5593923,61.7870988 54.2862961,62.5839052 C53.7044552,64.290244 52.3647978,67.006344 52.2479635,69.574864 C52.0991337,72.819112 51.7706751,78.256336 55.2770884,77.588144 C58.105926,77.049948 61.3960541,75.750616 63.5861768,74.557416 C64.9245746,73.82768 65.6986409,72.925872 67.7292265,72.770128 Z" id="path90" stroke="#D33833" stroke-width="2.5"></path>
                    <path d="M69.7541436,68.899136 C69.4430055,70.666328 69.0833702,71.170612 69.2225635,72.712352 C73.9494696,75.854864 74.8369061,67.314692 69.7541436,68.899136" id="path92" fill="#D33833"></path>
                    <path d="M69.7541436,68.899136 C69.4430055,70.666328 69.0833702,71.170612 69.2225635,72.712352 C73.9494696,75.854864 74.8369061,67.314692 69.7541436,68.899136 Z" id="path94" stroke="#D33833" stroke-width="2.5"></path>
                    <path d="M76.5985525,67.466668 C76.5985525,67.466668 75.1285193,69.56042 76.178453,70.18842 C77.2283867,70.81642 78.2783204,70.187792 78.9081547,71.234668 C79.537989,72.281544 78.9081547,72.909544 79.1178895,74.165544 C79.3276243,75.421544 80.3781878,75.631296 81.4274917,75.84042 C82.4767956,76.049544 85.4168619,76.46842 85.8363315,75.421544 L84.576663,79.189544 L82.057326,80.026668 L74.0792155,75.421544 L73.659116,73.118668 L73.659116,68.513544" id="path96" fill="#EF3D3A"></path>
                    <path d="M54.5544796,60.5586052 C54.3022939,63.825524 54.0353702,67.087984 53.7384033,70.3517 C53.2940552,75.22498 54.9124144,74.374668 59.1490575,74.374668 C59.7961492,74.374668 63.133326,73.605368 63.3720331,73.118668 C64.5170718,70.786904 61.457337,71.305004 64.6909061,69.546604 C67.4206077,68.06264 72.2426188,70.447784 71.139779,73.746668 C70.5225414,74.480172 67.9238453,73.97526 66.9923204,74.456936 C65.352232,75.304736 63.7121436,76.152536 62.0718663,77.000336 C59.9850994,78.079868 55.1621436,79.653636 52.9373171,78.14518 C47.3000486,74.322544 53.2931105,64.771292 55.3041083,60.7835548" id="path98" fill="#EF3D3A"></path>
                    <path d="M60.0790707,134.726096 C54.3569006,136.054944 51.5135768,132.33844 49.7790762,128.483776 C48.2303138,128.858064 48.8466066,130.958096 49.2377967,132.028208 C50.2620331,134.836624 54.3896519,138.575108 57.7622254,138.068312 C59.2135525,137.850396 61.1775646,136.5272 60.0790707,134.726096" id="path100" fill="#231F20"></path>
                    <path d="M87.9595028,128.228808 C88.0495691,128.22504 88.140895,128.2219 88.2309613,128.218132 C89.524011,125.539712 90.6432265,122.702408 92.2744972,120.337988 C91.1817348,117.80024 83.9997348,115.554512 84.1105856,120.11128 C85.6637569,120.788264 88.3449613,120.24944 89.721779,121.114196 C88.9256685,123.292728 87.7768508,125.147212 87.9595028,128.228808" id="path102" fill="#231F20"></path>
                    <path d="M63.0086188,128.1591 C64.2355359,125.916512 64.6348508,123.560256 66.3788619,121.865284 C67.1642652,121.102264 68.6916133,120.172196 67.9345525,118.050184 C67.7575691,117.549668 66.4645193,116.433712 65.7181657,116.21454 C62.9916133,115.411956 56.6383492,116.048748 58.789863,119.438064 C61.0447326,119.333188 64.075558,117.977964 65.7609945,119.610136 C64.4666851,121.673116 62.1592243,125.754488 63.0086188,128.1591" id="path104" fill="#231F20"></path>
                    <path d="M86.9360221,105.366468 C82.8307624,102.737032 78.2531271,99.877748 71.5264972,100.540916 C70.0892155,101.786868 69.5412597,104.559488 70.9376022,106.390736 C71.6644309,105.144784 71.2078011,102.853212 73.2333481,102.50844 C77.0501436,101.857204 81.4923646,104.836436 84.2378122,105.87766 C85.9402541,108.739456 84.0910608,109.791984 82.5574144,111.633908 C79.4176906,115.40756 75.205989,120.084904 75.3590387,125.734392 C76.6281547,126.6519 76.7377459,124.333952 76.919768,123.911936 C78.5592265,120.08616 82.6852707,115.193412 85.6965083,111.91902 C86.4359337,111.112668 87.6534033,110.338972 87.7888177,109.8058 C88.1793149,108.255268 86.772895,106.397644 86.9360221,105.366468" id="path106" fill="#231F20"></path>
                    <path d="M32.8153724,108.134692 C31.528621,108.86694 31.2223326,112.092348 29.7116751,112.184036 C27.5527923,112.31466 27.9464387,107.999672 27.9550674,105.476368 C26.4690365,106.821544 26.2077182,110.963204 27.2994099,113.09024 C26.0552354,113.6994 25.4996586,112.41828 24.8095492,111.966748 C25.6964818,118.391188 34.2349558,114.946608 32.8153724,108.134692" id="path108" fill="#231F20"></path>
                    <path d="M89.5498343,102.691188 C87.6389171,99.064488 84.9356685,95.070408 79.3282541,94.954228 C79.2142541,96.125448 79.1267072,97.907712 79.3345525,98.612956 C83.6212044,99.023668 86.267768,101.19906 89.5498343,102.691188" id="path110" fill="#231F20"></path>
                    <path d="M62.6852619,100.339956 C66.2617127,98.464748 72.834663,98.26316 77.6957238,98.405088 C77.9564751,97.34314 77.9501768,96.031248 77.9602541,94.736312 C71.7116685,94.425452 64.3237127,95.967192 62.6852619,100.339956" id="path112" fill="#231F20"></path>
                    <path d="M62.0054818,96.843252 C64.4786519,90.6518 72.978895,91.36458 80.1470387,91.535396 C79.8314917,90.731556 79.1474917,89.78202 78.2972155,89.438504 C76.0002099,88.506552 69.6647072,87.799424 66.4758564,89.488116 C64.4534586,90.560112 63.1541105,92.982308 62.0460431,94.402216 C61.5109359,95.087992 58.8464221,96.839484 62.0054818,96.843252" id="path114" fill="#231F20"></path>
                    <path d="M86.6374807,62.6908536 C83.7352044,57.734552 80.9582652,52.6440468 77.5149613,48.2723504 C78.9585414,52.5045052 79.5764088,59.5879056 79.7943315,64.987952 C82.8143867,66.397184 85.4004862,64.670812 86.6374807,62.6908536" id="path116" fill="#81B0C4"></path>
                    <path d="M102.254851,44.8774452 C99.0055359,44.2288468 96.7223867,41.0800548 93.5524309,41.2821452 C95.2945525,43.7309056 98.3473591,44.7631492 102.254851,44.8774452" id="path118" fill="#231F20"></path>
                    <path d="M103.688354,39.8070988 C101.039901,39.528204 97.9291492,39.1005988 95.2429061,39.3209012 C96.5145414,41.2576532 101.414022,40.5893984 103.688354,39.8070988" id="path120" fill="#231F20"></path>
                    <path d="M104.606022,35.4356536 C101.629425,35.3713464 97.929779,35.430504 95.1005635,35.6671972 C96.7740331,37.4594464 102.67558,36.3322492 104.606022,35.4356536" id="path122" fill="#231F20"></path>
                    <path d="M81.0369945,23.472756 C81.4640221,19.7454504 82.9460221,15.9688468 82.760221,11.8868468 C81.1144641,11.3334532 80.1690829,10.8494536 77.9640331,10.8524052 C77.8084641,14.3216028 77.3430166,19.625 77.4822099,22.932048 C78.5667845,22.860456 80.1659337,23.7045508 81.0369945,23.472756" id="path124" fill="#DCD9D8"></path>
                    <path d="M76.2382873,78.405172 C74.7436906,77.4324 73.4707956,76.217848 72.0354033,75.179136 C68.852221,75.022136 67.1151381,75.398936 64.7765635,77.221392 C64.8149834,77.367716 65.0499116,77.302404 65.0587293,77.482012 C68.4661326,75.967904 72.7975028,78.098708 76.2382873,78.405172" id="path126" fill="#F0D6B7"></path>
                    <path d="M58.3506796,55.2458508 C59.2868652,59.2907988 62.9551459,61.385744 66.2862762,63.61326 C69.7245414,59.2623504 71.8155912,53.666996 74.1182652,48.267452 C68.6777569,49.9027012 63.1188398,52.5560012 58.3506796,55.2458508" id="path128" fill="#81B0C4"></path>
                    <path d="M77.4822099,22.932048 C77.3430166,19.625 77.8084641,14.3216028 77.9640331,10.8524052 C80.1690829,10.8494536 81.1144641,11.3334532 82.760221,11.8868468 C82.9460221,15.9688468 81.4640221,19.7454504 81.0369945,23.472756 C80.1659337,23.7045508 78.5667845,22.860456 77.4822099,22.932048 Z M43.1473624,41.7398944 C44.6013978,28.4118504 46.7073746,17.2079536 50.5700221,5.40570468 C59.1428851,2.8103 69.4776464,2.58411952 77.0551823,4.92611992 C75.6638785,11.5873536 76.2716685,19.6970944 75.4585525,26.805552 C74.8457238,32.1484504 75.1581215,37.524256 74.3179227,42.975296 C65.1361989,44.8798944 52.1581492,43.420548 43.1473624,41.7398944 Z M76.4889613,42.8916464 C76.4114917,37.167552 76.7459337,31.521204 77.1842983,25.7899504 C79.3887182,26.1199016 80.8845746,26.340204 82.9327956,26.7879052 C82.2676906,32.3054504 82.3495691,38.5140468 80.9947956,43.3948 C79.4290276,43.3798536 78.0503204,43.4129492 76.4889613,42.8916464 Z M87.6716685,43.814304 C86.6255138,44.0534464 85.4074144,43.8235984 84.4078674,43.804256 C84.8777238,39.1381532 86.0177238,33.989244 86.4189282,29.0913464 C87.9916243,29.0425508 88.8318232,29.7821464 90.1255028,30.0308972 C90.1947845,34.330248 89.7488619,40.253544 87.6716685,43.814304 Z M104.604133,28.3888028 C107.88242,29.1825948 109.943867,33.1860948 109.026829,37.297548 C108.411481,40.060748 107.315569,45.2638536 106.142818,47.031548 C105.276166,48.339044 102.926254,50.0508464 101.049978,48.852748 C97.9978011,46.9040012 92.6209061,46.3382988 90.3950718,43.9794052 C91.5111381,40.2742052 91.857547,35.184956 92.3179558,30.4901536 C96.1309724,30.2531464 100.822608,31.5364016 103.993823,30.1746464 C101.779956,29.4596056 98.9072818,29.4539536 96.9944751,28.4118504 C98.5577238,27.659004 102.217691,27.8111056 104.604133,28.3888028 Z M74.1182652,48.267452 C71.8155912,53.666996 69.7245414,59.2623504 66.2862762,63.61326 C62.9551459,61.385744 59.2868652,59.2907988 58.3506796,55.2458508 C63.1188398,52.5560012 68.6777569,49.9027012 74.1182652,48.267452 Z M79.7943315,64.987952 C79.5764088,59.5879056 78.9585414,52.5045052 77.5149613,48.2723504 C80.9582652,52.6440468 83.7352044,57.734552 86.6374807,62.6908536 C85.4004862,64.670812 82.8143867,66.397184 79.7943315,64.987952 Z M73.3599448,67.267592 C72.055558,67.407636 70.9483094,65.772324 69.2521657,66.479452 C68.863558,66.051156 68.510221,65.587064 68.1140552,65.168816 C71.8603094,60.6672492 73.5627514,54.280552 76.4562099,48.9904056 C78.0087514,54.072056 77.8298785,59.6394016 78.1718785,65.185772 C76.0386298,65.050752 74.8551713,67.109336 73.3599448,67.267592 Z M69.2225635,72.712352 C69.0833702,71.170612 69.4430055,70.666328 69.7541436,68.899136 C74.8369061,67.314692 73.9494696,75.854864 69.2225635,72.712352 Z M63.5861768,74.557416 C61.3960541,75.750616 58.105926,77.049948 55.2770884,77.588144 C51.7706751,78.256964 52.0991337,72.819112 52.2479635,69.574864 C52.3647978,67.006344 53.7044552,64.290244 54.2862961,62.5839052 C54.5593923,61.7870988 54.6209271,60.941748 55.3041083,60.7835548 C56.5116265,60.5029016 60.4948243,62.0910508 61.6297856,62.7082492 C64.0302099,64.013296 65.8926298,66.085696 67.9314033,67.477344 C67.9578564,68.154328 67.9836796,68.830684 68.0107624,69.507668 C66.785105,70.116828 65.3686077,70.548892 63.5691713,70.627392 C64.7897901,71.239692 66.5854475,71.2309 67.6977348,71.95938 C67.708442,72.230676 67.719779,72.501344 67.7292265,72.770128 C65.6986409,72.925872 64.9245746,73.82768 63.5861768,74.557416 Z M42.6671138,78.34614 C40.8494122,76.5061 47.7653072,73.997868 49.9672707,73.862848 C49.954989,75.02716 50.6327536,76.124904 50.4962055,76.960144 C47.8809448,77.417956 44.4439392,77.115888 42.6671138,78.34614 Z M65.0587293,77.482012 C65.0499116,77.302404 64.8149834,77.367716 64.7765635,77.221392 C67.1151381,75.398936 68.852221,75.022136 72.0354033,75.179136 C73.4707956,76.217848 74.7436906,77.4324 76.2382873,78.405172 C72.7975028,78.098708 68.4661326,75.967904 65.0587293,77.482012 Z M85.6114807,71.267952 C85.5132265,73.312092 84.9747182,77.515924 83.7074917,78.25194 C81.0477017,79.79996 76.3195359,75.126384 74.316663,74.413604 C74.5345856,73.788116 74.894221,73.292624 74.9219337,72.49318 C76.1066519,72.783944 77.5489724,72.584868 78.5756022,72.08184 C77.3883646,71.949332 76.072011,71.958124 75.2866077,71.39418 C74.9987735,70.564592 75.3571492,69.434192 75.1656796,68.28244 C77.983558,67.489904 81.202011,67.067888 84.7643536,66.96364 C85.4571713,67.86168 85.6933591,69.572352 85.6114807,71.267952 Z M39.6070011,76.566388 C39.0361823,76.972076 35.1747945,81.981632 34.6457967,81.773764 C27.6586044,79.026264 21.1252707,74.275444 15.2870221,69.782104 C20.8534343,57.8726492 23.1004309,43.2816972 23.4974785,29.2184536 C29.8740464,26.244748 35.4749105,21.9578944 44.1277624,21.510256 C43.1264519,28.574 42.2124365,34.8761056 41.644074,41.5265 C39.4699492,42.4403028 36.350758,41.485052 34.3161414,41.8098536 C34.298884,44.2545948 37.4234917,42.8804052 37.6837392,44.5244464 C37.8798696,45.7679492 35.9645436,45.8621492 36.5882055,47.8202532 C38.178789,47.2437492 39.0140751,45.9703536 40.7104077,45.4921944 C42.2604298,48.8733464 40.6887414,54.8558 40.9121436,57.6818 C40.9544685,58.2123972 41.1778707,60.6214052 42.369895,60.1986984 C43.4248674,59.8245988 42.3096199,53.7919052 42.4252575,51.1172532 C42.5305657,48.653044 42.126779,46.2686536 43.1276486,44.7217012 C51.4889503,45.8564972 59.9855403,46.5900012 69.0323536,46.837496 C67.0420773,47.6890012 64.6776796,48.4948508 62.0854077,49.951748 C60.6801215,50.7416464 56.2503713,52.385248 55.844884,53.7161056 C55.1978552,55.8367988 57.5424762,56.9664452 57.9434917,58.7845052 C53.7229094,56.4893536 52.8994641,60.984452 51.9010508,64.16904 C50.9964199,67.053444 50.4814674,69.208112 50.2595138,70.871684 C46.6237326,72.59994 42.7364586,74.350176 39.6070011,76.566388 Z M81.9187624,81.167744 C87.7403204,83.98244 88.7896243,70.648116 86.5077348,66.352596 C86.860442,65.071476 88.0735028,64.581008 88.5685525,63.429256 C85.3198674,57.6265988 81.711547,52.2100988 78.3967293,46.4757052 C80.8625304,48.006204 84.3845635,46.7494504 87.2862099,47.895048 C88.3468508,48.313296 89.1146188,50.7342988 89.9176575,52.6710508 C92.1264862,57.9995052 94.4455359,64.717284 95.4772044,69.8022 C95.7102431,70.96086 96.345116,73.48542 96.2027735,74.516596 C95.9489503,76.362916 93.4365414,77.731956 92.1586077,78.87366 C89.8042873,80.982484 88.3216575,82.838224 85.8659337,84.810144 C84.8701657,83.344392 82.7331381,82.359688 81.9187624,81.167744 Z M26.2931238,132.643648 C23.5191448,129.60036 24.099789,123.89812 24.4356166,119.84124 C29.4496641,122.986264 36.1047448,119.592552 36.0420133,114.243248 C38.4358873,114.306676 36.9363149,117.224364 36.5033039,119.103968 C35.0881923,125.243296 38.8873525,131.913284 36.6755635,137.527604 C32.3811017,137.202928 28.8530221,135.453948 26.2931238,132.643648 Z M46.1415315,150.306776 C39.8616431,148.532048 31.8132431,143.982188 29.2326862,138.357192 C31.2308983,138.6467 32.6180453,139.6515 34.5892376,139.775844 C35.3342055,139.8242 36.3101967,139.464356 37.1663934,139.67662 C38.8726144,140.098636 40.3126044,143.913108 41.5997967,145.332388 C42.8545525,146.718384 44.3626906,147.310588 45.3948,148.574124 C46.0578895,148.893148 47.0382895,148.871168 47.0759536,149.864036 C46.7885602,150.1705 46.4859249,150.404116 46.1415315,150.306776 Z M78.8319448,148.637552 C72.3137901,152.304444 61.2809204,155.06262 54.3473271,151.616156 C48.7526354,148.834744 41.1901525,144.23276 38.6118,138.401152 C41.0204122,132.773644 37.8983238,127.617136 37.6990442,121.903592 C37.593232,118.863444 39.1346254,116.209516 39.2527193,112.899956 C38.4285182,111.544104 35.9103779,111.377056 34.1672486,111.47 C33.580495,114.397736 32.5532983,117.688456 29.529653,118.018784 C25.251189,118.485388 22.1229282,114.954772 21.9285613,111.265272 C21.6985459,106.92642 25.2708398,99.735192 30.3341403,100.234452 C32.2900906,100.427248 32.7705912,102.382212 34.9016983,102.362116 C36.0567514,100.064264 33.1199602,99.342692 32.8178287,97.699216 C32.7390994,97.274688 33.0613856,95.615512 33.2488243,94.83742 C34.1685083,91.048696 36.2186818,86.145272 38.2366077,83.260868 C40.7977657,79.60214 45.8295746,79.050756 51.242937,78.692168 C52.2097956,80.768964 55.7715713,80.598148 58.0923845,80.054928 C55.3110365,81.1533 52.7252519,83.81602 50.5823039,86.172904 C48.1207856,88.877072 45.6273348,91.777804 45.501368,95.312188 C50.1530088,88.8777 53.9960055,83.258356 62.4544906,80.42796 C68.8547403,78.287736 76.3296133,81.408896 81.2473591,84.85222 C83.2880221,86.283432 84.5061215,88.55428 85.9566298,90.63296 C91.3839116,98.41702 93.9164751,109.527596 93.3597017,120.29654 C93.130442,124.737756 93.1405193,129.1639 91.6459227,132.151924 C90.0839337,135.276224 84.800884,138.071452 81.7083978,135.245452 C81.1352486,138.283716 84.280011,140.162692 87.973989,139.069344 C85.3400221,142.45866 82.5756796,146.53124 78.8319448,148.637552 Z M90.975779,48.4293504 C96.0692486,50.9540988 105.586044,55.2250012 108.779304,48.420056 C109.957724,45.9116984 111.34021,41.6715052 111.950519,39.0821984 C112.812762,35.429248 111.015845,27.7511944 107.250066,26.5254012 C103.923912,25.4428548 100.042873,25.5087948 96.0364972,26.3112532 C95.5647514,26.7024972 95.0394696,27.3845052 94.6722762,28.0954012 C91.8115691,28.2060548 89.132884,27.9422948 86.8730387,26.769756 C87.0871823,24.660304 85.6561989,24.3217492 84.3146519,23.8872988 C83.3201436,19.9554536 86.3042983,14.8208 85.5900663,11.235548 C85.0805304,8.6813464 81.9288398,8.2863972 79.6123094,7.808552 C79.5367293,6.3891464 79.7137127,5.20430508 79.8718011,4.0035 C79.3421105,2.05743476 76.9663757,0.94960508 74.7153481,0.67829024 C67.3091271,-0.209741952 56.0638773,-0.608620548 48.940074,1.9455754 C46.9521912,6.8073944 45.3861713,12.7207052 43.7304,18.2723508 C36.7825724,17.532504 31.1632541,21.2615052 25.8657812,23.7045508 C24.0316409,24.5523508 21.4943536,25.0193944 20.8091569,26.4750984 C20.1448707,27.884456 20.4167072,30.5855468 20.2518796,33.137048 C19.8324099,39.653804 19.4732155,45.939456 17.7472807,52.611956 C16.9723326,55.6061972 15.6215901,58.248256 14.679295,61.1333508 C13.8083602,63.807312 12.2866807,67.111848 11.8898221,69.778336 C11.301368,73.73034 15.0335768,73.95014 17.4200818,75.662696 C21.1092729,78.310972 24.0050619,79.775468 28.0005414,82.165636 C29.183937,82.873392 32.7526409,84.665076 33.1585691,85.490268 C33.9655127,87.126208 31.7734376,89.432852 31.1873768,90.715228 C30.2603238,92.74304 29.776863,94.465644 29.6440309,96.466452 C26.292368,96.9946 23.7516166,98.983476 22.2168994,101.226064 C19.6781635,104.937544 17.9175249,111.804096 20.1140718,117.027172 C20.2863315,117.438512 21.1454254,118.247376 21.2721481,118.879144 C21.5221293,120.123212 20.8017249,121.777364 20.7569436,123.10056 C20.5261724,129.88924 21.9089105,135.738432 26.4924033,137.785712 C28.3531227,145.176644 35.0128641,147.634008 41.2873359,151.30718 C43.6327757,152.679988 46.2182453,153.557304 48.8884276,154.536984 C58.4670729,158.0519 73.1634365,157.389988 81.1132044,151.3951 C84.4840773,148.852956 89.8723094,143.48544 91.7996022,139.599376 C96.8899227,129.33974 96.5283978,112.193456 92.9679448,99.713212 C92.4892707,98.037708 91.7951934,95.574692 90.8258785,93.561952 C90.1500663,92.156488 88.0495691,89.344304 88.3046519,88.103376 C88.5672928,86.820372 93.0939116,83.393376 94.0644862,82.460168 C95.8122762,80.779012 99.1327624,78.547728 99.4017017,76.426344 C99.6907956,74.168684 98.4040442,71.08018 97.7521657,68.901648 C95.5729392,61.6313548 93.4466188,54.9110012 90.975779,48.4293504 Z" id="path130" fill="#231F20"></path>
                    <path d="M56.9943315,98.75614 C57.2706398,99.122892 58.789863,99.679928 60.9155536,98.659428 C60.9155536,98.659428 58.3962166,98.240552 58.6058254,94.05242 L57.5560177,94.262172 C57.5560177,94.262172 56.4710652,98.059688 56.9943315,98.75614" id="path132" fill="#F7E4CD"></path>
                    <path d="M75.4018674,62.758552 C75.4018674,62.1229532 74.8847735,61.6075536 74.2467514,61.6075536 C73.6093591,61.6075536 73.0922652,62.1229532 73.0922652,62.758552 C73.0922652,63.394088 73.6093591,63.910304 74.2467514,63.910304 C74.8847735,63.910304 75.4018674,63.394088 75.4018674,62.758552" id="path134" fill="#1D1919"></path>
                    <path d="M76.5563536,57.420552 C76.5563536,56.7849532 76.0392597,56.2695536 75.4012376,56.2695536 C74.7638453,56.2695536 74.2467514,56.7849532 74.2467514,57.420552 C74.2467514,58.0561508 74.7638453,58.572304 75.4012376,58.572304 C76.0392597,58.572304 76.5563536,58.0561508 76.5563536,57.420552" id="path136" fill="#1D1919"></path>
                </g>
            </g>
        </g>
    </g>
</svg>