<?xml version="1.0" encoding="utf-8"?>
<!-- Generator: Adobe Illustrator 25.0.1, SVG Export Plug-In . SVG Version: 6.00 Build 0)  -->
<svg version="1.1" xmlns="http://www.w3.org/2000/svg" xmlns:xlink="http://www.w3.org/1999/xlink" x="0px" y="0px"
	 viewBox="0 0 3396.38 3329.7" style="enable-background:new 0 0 3396.38 3329.7;" xml:space="preserve">
<style type="text/css">
	.st0{fill:none;stroke:#613BB8;stroke-width:100;stroke-miterlimit:10;}
	.st1{fill:#613BB8;stroke:#613BB8;stroke-width:100;stroke-miterlimit:10;}
</style>
<g id="Layer_1">
	<path class="st0" d="M2505.26,2946.72H891.12c-323.63,0-585.98-262.35-585.98-585.98V968.96c0-323.63,262.35-585.98,585.98-585.98
		h1614.14c323.63,0,585.98,262.35,585.98,585.98v1391.78C3091.24,2684.37,2828.89,2946.72,2505.26,2946.72z"/>
</g>
<g id="Layer_2">
</g>
<g id="Layer_3">
	<path class="st1" d="M2643.13,1646.12c0,100.24-19.01,194.14-57.04,281.69c-38.04,87.57-89.63,163.93-154.86,229.1
		c-65.25,65.23-141.9,116.59-230.04,153.97c-88.17,37.44-181.76,56.83-280.75,58.01l-237.34,1.77c-8.47,0-15.41-2.95-20.8-8.99
		c-5.45-6.13-8.16-13.35-8.16-21.82V1187.76c15.64,0.16,37.8,0.21,56.15,0.16V2312.7h105.04c35.01,0,70.02-0.57,105.11-1.82
		c91.77-1.2,178.06-19.32,259.01-54.41c80.84-35.01,151.55-82.49,211.9-142.39c60.38-59.86,108.14-129.96,143.15-210.36
		c35.01-80.43,52.53-166.59,52.53-258.48c0-91.92-17.52-178.68-52.53-260.34c-35.01-81.6-82.41-152.35-142.19-212.21
		c-59.78-59.86-130.45-107.33-211.98-142.39c-81.52-35.01-168.13-52.64-259.89-52.64c-35.09,0-70.1,0.36-105.11,0.96
		c-35.01,0.57-286.2,0.89-286.2,0.89v0.1c-0.91,0-1.85-0.03-2.76-0.03c0.26,1.56,0.39,3.18,0.39,4.85v972.7
		c0,61.63-11.73,119.56-35.33,173.89c-23.49,54.38-55.56,102.06-95.96,143.12c-40.54,41.06-87.86,73.34-142.24,96.93
		c-54.33,23.51-112.26,35.3-173.89,35.3c-59.18,0-116.53-11.5-172.09-34.41c-55.58-22.92-103.86-55.5-144.92-97.81
		c-6.05-6.05-9.07-12.1-9.07-18.12c0-6.05,3.34-12.38,9.96-19.03c6.62-6.62,13.63-9.93,20.86-9.93c4.8,0,14.52,6.33,28.96,19
		c14.52,12.67,34.13,26.9,58.89,42.6c24.77,15.69,54.33,29.85,88.74,42.52c34.44,12.7,74.59,19.03,120.52,19.03
		c54.33,0,105.32-10.25,153.01-30.81c47.71-20.49,89.42-48.57,125.01-84.18c35.61-35.66,63.69-77.3,84.26-125.01
		c20.49-47.68,30.81-98.75,30.81-153.08l-1.33-1002.99c0-8.39,2.74-15.69,8.19-21.74c5.45-6.05,12.38-9.07,20.86-9.07h418.45
		c98.99,0,192.58,19.03,280.75,57.07c88.14,38.01,164.79,89.68,230.04,154.93c65.23,65.15,116.82,141.87,154.86,230.02
		C2624.12,1453.51,2643.13,1547.13,2643.13,1646.12z"/>
</g>
</svg>
