<svg width="106px" height="130px" viewBox="0 0 106 130" version="1.1" xmlns="http://www.w3.org/2000/svg" xmlns:xlink="http://www.w3.org/1999/xlink">
    <defs></defs>
    <g id="Page-1" stroke="none" stroke-width="1" fill="none" fill-rule="evenodd">
        <g id="ansible_logo" fill-rule="nonzero">
            <g id="Group" transform="translate(0.000000, 116.000000)" fill="#1A1918">
                <path d="M27.9561891,13.5772529 C27.7319645,13.5772529 27.4898856,13.519195 27.3217976,13.2862938 L20.1239311,3.58760018 L20.1239311,13.4803781 L18.4824592,13.4803781 L18.4824592,1.29857664 C18.4824592,0.813867833 18.8741284,0.425866547 19.322095,0.425866547 C19.5828325,0.425866547 19.8068962,0.503332951 19.97418,0.736234113 L27.1538704,10.4156866 L27.1538704,0.561558242 L28.7951815,0.561558242 L28.7951815,12.723784 C28.7951815,13.2282358 28.4035123,13.5772529 27.9561891,13.5772529" id="Shape"></path>
                <path d="M41.5330678,13.6936868 C39.8922395,13.6936868 38.1762941,13.3443351 36.572461,12.7239345 L36.9642911,11.3270296 C38.4375141,11.812073 40.0411863,12.1612574 41.5330678,12.1612574 C43.6032048,12.1612574 44.6847584,11.4046632 44.6847584,10.3380362 C44.6847584,9.36794931 43.8452835,8.88307318 40.9548131,7.48633548 C38.0643427,6.0897651 36.9271347,5.19764658 36.9271347,3.45155712 C36.9271347,1.26007768 38.5679633,0.367289897 41.6633563,0.367289897 C42.9503151,0.367289897 44.9268375,0.639175231 46.0648494,0.988359659 L45.8036294,2.42357959 C44.5538268,2.11337934 42.9877932,1.90005393 41.7008344,1.90005393 C39.5193897,1.90005393 38.6240998,2.32653744 38.6240998,3.39366646 C38.6240998,4.4408851 39.2765065,4.88711168 42.334904,6.34207467 C45.5612289,7.87450406 46.3817235,8.65050667 46.3817235,10.2408267 C46.3817235,12.549426 44.2554505,13.6936868 41.5330678,13.6936868" id="Shape"></path>
                <polygon id="Shape" points="54.1586011 0.561558242 55.8555659 0.561558242 55.8555659 13.4802108 54.1586011 13.4802108"></polygon>
                <path d="M70.2903531,7.62232834 L66.0752851,7.62232834 L66.0752851,12.0064584 L70.2903531,12.0064584 C71.7260983,12.0064584 72.6025688,11.0751884 72.6025688,9.77532555 C72.6025688,8.55326373 71.688942,7.62232834 70.2903531,7.62232834 M69.4693761,2.03571216 L66.0752851,2.03571216 L66.0752851,6.16753268 L69.4693761,6.16753268 C70.8309693,6.16753268 71.8192305,5.27507952 71.8192305,4.03377656 C71.8192305,2.81171473 70.9612578,2.03571216 69.4693761,2.03571216 M70.308851,13.4803279 L65.2366143,13.4803279 C64.7514913,13.4803279 64.3784806,13.0921593 64.3784806,12.6074505 L64.3784806,1.43455277 C64.3784806,0.968750448 64.7514913,0.561675363 65.2366143,0.561675363 L69.4323804,0.561675363 C72.0058161,0.561675363 73.5348541,1.8612036 73.5348541,3.89808487 C73.5348541,5.00352881 72.9007841,6.03167367 71.9308601,6.63300035 C73.3674093,7.07922693 74.3365292,8.30112144 74.3365292,9.77532555 C74.3365292,11.8314479 72.6772032,13.4803279 70.308851,13.4803279" id="Shape"></path>
                <path d="M82.4863206,13.4803446 C82.0208216,13.4803446 81.6476503,13.0729349 81.6476503,12.6074672 L81.6476503,0.561692095 L83.3442933,0.561692095 L83.3442933,11.9092657 L90.0951584,11.9092657 L90.0951584,13.4803446 L82.4863206,13.4803446 Z" id="Shape"></path>
                <path d="M101.663184,13.6936868 C98.1944594,13.6936868 96.105825,12.3747501 96.105825,9.71730102 C96.105825,8.45642233 96.7960312,7.25376896 98.1388052,6.6912591 C97.0570905,5.99289027 96.4978159,5.00356228 96.4978159,3.91735944 C96.4978159,1.51221995 98.3072148,0.367289897 101.700823,0.367289897 C102.838514,0.367289897 104.442025,0.503316223 105.78496,0.813851101 L105.598213,2.24907104 C104.181288,2.01616988 102.85669,1.88081281 101.570053,1.88081281 C99.3694669,1.88081281 98.1944594,2.50121331 98.1944594,3.99499316 C98.1944594,5.17840544 99.2763347,6.10934083 100.712562,6.10934083 L103.62137,6.10934083 C104.031698,6.10934083 104.348571,6.43911681 104.348571,6.84635925 C104.348571,7.27301005 104.031698,7.60278608 103.62137,7.60278608 L100.488981,7.60278608 C98.8473486,7.60278608 97.8035943,8.43667928 97.8035943,9.71730102 C97.8035943,11.5987475 99.5005595,12.1612574 101.62635,12.1612574 C102.782699,12.1612574 104.348571,12.0064919 105.61655,11.695957 L105.859594,13.1117685 C104.647109,13.4611203 103.061773,13.6936868 101.663184,13.6936868" id="Shape"></path>
                <path d="M5.85401488,2.98441629 L8.82603613,10.6141044 L4.33736237,6.93620688 L5.85401488,2.98441629 Z M11.1339087,12.3719058 L6.56271895,0.928126598 C6.43226981,0.598350603 6.17104978,0.423674733 5.85401488,0.423674733 C5.53697998,0.423674733 5.25726221,0.598350603 5.12681306,0.928126598 L0.109265251,13.4803614 L1.82537147,13.4803614 L3.81186616,8.30533777 L9.73885857,13.2862771 C9.97723795,13.486552 10.1491863,13.5772362 10.3732501,13.5772362 C10.8205733,13.5772362 11.2122425,13.2282191 11.2122425,12.7239345 C11.2122425,12.642118 11.1840938,12.5119476 11.1339087,12.3719058 Z" id="Shape"></path>
            </g>
            <g id="Group">
                <path d="M105.949719,52.9453553 C105.949719,82.118188 82.3025795,105.765119 53.1293312,105.765119 C23.9585782,105.765119 0.308943346,82.118188 0.308943346,52.9453553 C0.308943346,23.7746024 23.9585782,0.1249676 53.1293312,0.1249676 C82.3025795,0.1249676 105.949719,23.7746024 105.949719,52.9453553" id="Shape" fill="#1A1918"></path>
                <path d="M54.018537,32.3916477 L67.6874014,66.1279087 L47.0408154,49.8644434 L54.018537,32.3916477 Z M78.3010166,73.8994416 L57.2755141,23.3001456 C56.6753206,21.8408385 55.4751406,21.0686556 54.018537,21.0686556 C52.5592301,21.0686556 51.271704,21.8408385 50.67151,23.3001456 L27.5946175,78.8012327 L35.4888513,78.8012327 L44.6240266,55.9179576 L71.8854308,77.9419118 C72.9818348,78.8284767 73.772943,79.2294375 74.8013417,79.2294375 C76.8608426,79.2294375 78.6610083,77.6854879 78.6610083,75.4569095 C78.6610083,75.0942143 78.5329003,74.5185606 78.3010166,73.8994416 Z" id="Shape" fill="#FFFFFF"></path>
            </g>
        </g>
    </g>
</svg>