<svg width="138px" height="82px" viewBox="0 0 138 82" version="1.1" xmlns="http://www.w3.org/2000/svg" xmlns:xlink="http://www.w3.org/1999/xlink">
    <defs></defs>
    <g id="Page-1" stroke="none" stroke-width="1" fill="none" fill-rule="evenodd">
        <g id="aws">
            <path d="M39.0304569,29.8712766 C39.0304569,31.5638298 39.213198,32.9361702 39.5329949,33.9425532 C39.8984772,34.9489362 40.3553299,36.0468085 40.9949239,37.2361702 C41.2233503,37.6021277 41.3147208,37.9680851 41.3147208,38.2882979 C41.3147208,38.7457447 41.0406091,39.2031915 40.4467005,39.6606383 L37.5685279,41.5819149 C37.1573604,41.856383 36.7461929,41.993617 36.3807107,41.993617 C35.9238579,41.993617 35.4670051,41.7648936 35.0101523,41.3531915 C34.3705584,40.6670213 33.822335,39.9351064 33.3654822,39.2031915 C32.9086294,38.4255319 32.4517766,37.556383 31.9492386,36.5042553 C28.3857868,40.712766 23.9086294,42.8170213 18.5177665,42.8170213 C14.680203,42.8170213 11.6192893,41.7191489 9.38071066,39.5234043 C7.14213198,37.3276596 6,34.4 6,30.7404255 C6,26.8521277 7.37055838,23.6957447 10.1573604,21.3170213 C12.9441624,18.9382979 16.6446701,17.7489362 21.3502538,17.7489362 C22.9035533,17.7489362 24.5025381,17.8861702 26.1928934,18.1148936 C27.8832487,18.343617 29.6192893,18.7095745 31.4467005,19.1212766 L31.4467005,15.7819149 C31.4467005,12.3053191 30.715736,9.88085106 29.2994924,8.46276596 C27.8375635,7.04468085 25.3705584,6.35851064 21.8527919,6.35851064 C20.2538071,6.35851064 18.6091371,6.54148936 16.9187817,6.95319149 C15.2284264,7.36489362 13.5837563,7.86808511 11.9847716,8.50851064 C11.2538071,8.8287234 10.7055838,9.01170213 10.3857868,9.10319149 C10.0659898,9.19468085 9.83756345,9.24042553 9.65482234,9.24042553 C9.01522843,9.24042553 8.69543147,8.78297872 8.69543147,7.82234043 L8.69543147,5.58085106 C8.69543147,4.84893617 8.78680203,4.3 9.01522843,3.97978723 C9.24365482,3.65957447 9.65482234,3.3393617 10.2944162,3.01914894 C11.893401,2.19574468 13.8121827,1.50957447 16.0507614,0.960638298 C18.2893401,0.365957447 20.6649746,0.0914893617 23.177665,0.0914893617 C28.6142132,0.0914893617 32.5888325,1.32659574 35.1472081,3.79680851 C37.6598985,6.26702128 38.9390863,10.0180851 38.9390863,15.05 L38.9390863,29.8712766 L39.0304569,29.8712766 Z M20.4822335,36.8244681 C21.9898477,36.8244681 23.5431472,36.55 25.1878173,36.0010638 C26.8324873,35.4521277 28.2944162,34.4457447 29.5279188,33.0734043 C30.2588832,32.2042553 30.8071066,31.243617 31.0812183,30.1457447 C31.3553299,29.0478723 31.5380711,27.7212766 31.5380711,26.1659574 L31.5380711,24.2446809 C30.213198,23.9244681 28.7969543,23.65 27.3350254,23.4670213 C25.8730964,23.2840426 24.4568528,23.1925532 23.0406091,23.1925532 C19.9796954,23.1925532 17.7411168,23.787234 16.2335025,25.0223404 C14.7258883,26.2574468 13.9949239,27.9957447 13.9949239,30.2829787 C13.9949239,32.4329787 14.5431472,34.0340426 15.6852792,35.1319149 C16.7817259,36.2755319 18.3807107,36.8244681 20.4822335,36.8244681 Z M57.1675127,41.7648936 C56.3451777,41.7648936 55.7969543,41.6276596 55.4314721,41.3074468 C55.0659898,41.0329787 54.7461929,40.3925532 54.4720812,39.5234043 L43.7360406,4.16276596 C43.4619289,3.24787234 43.3248731,2.65319149 43.3248731,2.33297872 C43.3248731,1.60106383 43.6903553,1.1893617 44.4213198,1.1893617 L48.8984772,1.1893617 C49.7664975,1.1893617 50.3604061,1.32659574 50.680203,1.64680851 C51.0456853,1.9212766 51.319797,2.56170213 51.5939086,3.43085106 L59.2690355,33.7138298 L66.3959391,3.43085106 C66.6243655,2.51595745 66.8984772,1.9212766 67.2639594,1.64680851 C67.6294416,1.37234043 68.2690355,1.1893617 69.0913706,1.1893617 L72.7461929,1.1893617 C73.6142132,1.1893617 74.2081218,1.32659574 74.5736041,1.64680851 C74.9390863,1.9212766 75.2588832,2.56170213 75.4416244,3.43085106 L82.6598985,34.0797872 L90.5634518,3.43085106 C90.8375635,2.51595745 91.1573604,1.9212766 91.4771574,1.64680851 C91.8426396,1.37234043 92.4365482,1.1893617 93.2588832,1.1893617 L97.5076142,1.1893617 C98.2385787,1.1893617 98.6497462,1.55531915 98.6497462,2.33297872 C98.6497462,2.56170213 98.6040609,2.79042553 98.5583756,3.06489362 C98.5126904,3.3393617 98.4213198,3.70531915 98.2385787,4.20851064 L87.2284264,39.5691489 C86.9543147,40.4840426 86.6345178,41.0787234 86.2690355,41.3531915 C85.9035533,41.6276596 85.3096447,41.8106383 84.5329949,41.8106383 L80.6040609,41.8106383 C79.7360406,41.8106383 79.142132,41.6734043 78.7766497,41.3531915 C78.4111675,41.0329787 78.0913706,40.4382979 77.9086294,39.5234043 L70.8274112,10.0180851 L63.7918782,39.4776596 C63.5634518,40.3925532 63.2893401,40.987234 62.9238579,41.3074468 C62.5583756,41.6276596 61.9187817,41.7648936 61.0964467,41.7648936 L57.1675127,41.7648936 Z M115.873096,43 C113.497462,43 111.121827,42.7255319 108.837563,42.1765957 C106.553299,41.6276596 104.771574,41.0329787 103.583756,40.3468085 C102.852792,39.9351064 102.350254,39.4776596 102.167513,39.0659574 C101.984772,38.6542553 101.893401,38.1968085 101.893401,37.7851064 L101.893401,35.4521277 C101.893401,34.4914894 102.258883,34.0340426 102.944162,34.0340426 C103.218274,34.0340426 103.492386,34.0797872 103.766497,34.1712766 C104.040609,34.262766 104.451777,34.4457447 104.908629,34.6287234 C106.461929,35.3148936 108.152284,35.8638298 109.93401,36.2297872 C111.761421,36.5957447 113.543147,36.7787234 115.370558,36.7787234 C118.248731,36.7787234 120.48731,36.2755319 122.040609,35.2691489 C123.593909,34.262766 124.416244,32.7989362 124.416244,30.9234043 C124.416244,29.6425532 124.005076,28.5904255 123.182741,27.7212766 C122.360406,26.8521277 120.807107,26.0744681 118.568528,25.3425532 L111.944162,23.2840426 C108.609137,22.2319149 106.142132,20.6765957 104.634518,18.6180851 C103.126904,16.6053191 102.350254,14.3638298 102.350254,11.9851064 C102.350254,10.0638298 102.761421,8.3712766 103.583756,6.90744681 C104.406091,5.44361702 105.502538,4.16276596 106.873096,3.15638298 C108.243655,2.10425532 109.796954,1.32659574 111.624365,0.777659574 C113.451777,0.228723404 115.370558,0 117.380711,0 C118.385787,0 119.436548,0.0457446809 120.441624,0.182978723 C121.492386,0.320212766 122.451777,0.503191489 123.411168,0.686170213 C124.324873,0.914893617 125.192893,1.14361702 126.015228,1.41808511 C126.837563,1.69255319 127.477157,1.96702128 127.93401,2.24148936 C128.573604,2.60744681 129.030457,2.97340426 129.304569,3.38510638 C129.57868,3.75106383 129.715736,4.25425532 129.715736,4.89468085 L129.715736,7.04468085 C129.715736,8.00531915 129.350254,8.50851064 128.664975,8.50851064 C128.299492,8.50851064 127.705584,8.32553191 126.928934,7.95957447 C124.324873,6.77021277 121.401015,6.17553191 118.15736,6.17553191 C115.553299,6.17553191 113.497462,6.58723404 112.081218,7.45638298 C110.664975,8.32553191 109.93401,9.65212766 109.93401,11.5276596 C109.93401,12.8085106 110.390863,13.906383 111.304569,14.7755319 C112.218274,15.6446809 113.908629,16.5138298 116.329949,17.2914894 L122.817259,19.35 C126.106599,20.4021277 128.482234,21.8659574 129.898477,23.7414894 C131.314721,25.6170213 132,27.7670213 132,30.1457447 C132,32.112766 131.588832,33.8968085 130.812183,35.4521277 C129.989848,37.0074468 128.893401,38.3797872 127.477157,39.4776596 C126.060914,40.6212766 124.370558,41.4446809 122.406091,42.0393617 C120.350254,42.6797872 118.203046,43 115.873096,43 Z" id="Shape" fill="#252F3E" fill-rule="nonzero"></path>
            <g id="Group" transform="translate(0.000000, 51.000000)" fill="#FF9900">
                <path d="M124.519868,13.9955882 C109.486093,25.0735294 87.6437086,30.9544118 68.8629139,30.9544118 C42.5423841,30.9544118 18.8264901,21.2441176 0.913907285,5.10588235 C-0.502649007,3.82941176 0.776821192,2.09705882 2.46754967,3.1 C21.8423841,14.3147059 45.7410596,21.1073529 70.4622517,21.1073529 C87.1410596,21.1073529 105.464901,17.6426471 122.32649,10.5308824 C124.839735,9.39117647 126.987417,12.1720588 124.519868,13.9955882 Z" id="Shape"></path>
                <path d="M130.780132,6.88382353 C128.860927,4.42205882 118.076821,5.69852941 113.187417,6.29117647 C111.725166,6.47352941 111.496689,5.19705882 112.821854,4.23970588 C121.412583,-1.77794118 135.53245,-0.0455882353 137.177483,1.96029412 C138.822517,4.01176471 136.72053,18.0985294 128.678146,24.8455882 C127.444371,25.8941176 126.256291,25.3470588 126.804636,23.9794118 C128.63245,19.4661765 132.699338,9.3 130.780132,6.88382353 Z" id="Shape"></path>
            </g>
        </g>
    </g>
</svg>