<svg width="64px" height="119px" viewBox="0 0 64 119" version="1.1" xmlns="http://www.w3.org/2000/svg" xmlns:xlink="http://www.w3.org/1999/xlink">
    <defs></defs>
    <g id="Page-1" stroke="none" stroke-width="1" fill="none" fill-rule="evenodd">
        <g id="Group">
            <path d="M20.9890899,64 C20.9890899,64 17.8194934,65.8838268 23.2473701,66.5195175 C29.8241223,67.2862457 33.1848309,67.1758294 40.4302,65.7773472 C40.4302,65.7773472 42.3389342,66.9966137 45,68.052599 C28.7525361,75.1606754 8.22864122,67.6407403 20.9890899,64 Z" id="Shape" fill="#0074BD"></path>
            <path d="M19.4747604,55 C19.4747604,55 15.9113349,57.7419332 21.3553702,58.3266903 C28.3970315,59.0822087 33.9558795,59.1441646 43.5804584,57.2191321 C43.5804584,57.2191321 44.9085322,58.6211723 47,59.3873991 C27.3151427,65.3715025 5.3901498,59.8581878 19.4747604,55 Z" id="Shape" fill="#0074BD"></path>
            <path d="M35.7675392,40.1004758 C39.8782895,44.7865473 34.6896402,49 34.6896402,49 C34.6896402,49 45.1213897,43.6679728 40.3316063,36.9876854 C35.8564692,30.7607986 32.4255057,27.6675996 51,17 C51,17 21.8426505,24.2098143 35.7675392,40.1004758 Z" id="Shape" fill="#EA2D2E"></path>
            <path d="M57.4152599,70.636983 C57.4152599,70.636983 59.739252,72.3902395 54.8556139,73.7461179 C45.5692829,76.3202566 16.1974495,77.0967083 8.0393847,73.8491233 C5.10880185,72.6809513 10.6070313,71.0618182 12.3369789,70.7198533 C14.1407502,70.3627454 15.1706454,70.4279767 15.1706454,70.4279767 C11.9091287,68.326099 -5.91002238,74.5560172 6.1205139,76.3427214 C38.9282407,81.2094394 65.9240782,74.1506515 57.4152599,70.636983 Z" id="Shape" fill="#0074BD"></path>
            <path d="M21.9801898,45.0148784 C21.9801898,45.0148784 7.50976816,48.9393235 16.8560524,50.3656268 C20.8036039,50.9685988 28.6682353,50.829869 35.999352,50.1277755 C41.9890198,49.5539569 48,48.3267007 48,48.3267007 C48,48.3267007 45.889543,49.3601373 44.3615666,50.5503988 C29.6641061,54.963012 1.27668093,52.9080013 9.45025425,48.3966688 C16.3595261,44.5811969 21.9801898,45.0148784 21.9801898,45.0148784 Z" id="Shape" fill="#0074BD"></path>
            <path d="M49.3067545,61.5738776 C64.6567735,53.1540423 57.5587154,45.0617289 52.6046794,46.1516851 C51.3932263,46.4186327 50.8497555,46.6498471 50.8497555,46.6498471 C50.8497555,46.6498471 51.3011096,45.903273 52.1605644,45.5820569 C61.9613176,41.9456848 69.4969756,56.3107878 49.0000001,62 C48.9998192,62 49.2356309,61.7745182 49.3067545,61.5738776 Z" id="Shape" fill="#0074BD"></path>
            <path d="M41.7259014,0 C41.7259014,0 50.5907757,8.52623939 33.3151907,21.6334953 C19.4613117,32.1518518 30.1564316,38.1468922 33.3102829,45 C25.2227344,37.9864922 19.29067,31.8116369 23.2696042,26.065543 C29.1125725,17.6320235 45.3018266,13.5418238 41.7259014,0 Z" id="Shape" fill="#EA2D2E"></path>
            <path d="M24.4582315,81.7351404 C39.0523396,82.7070991 61.4694649,81.1942502 62,74 C62,74 60.9801677,76.727237 49.9377223,78.8911712 C37.4800982,81.3343288 22.1116132,81.0498759 13,79.4826765 C13,79.4826765 14.8666445,81.0920862 24.4582315,81.7351404 Z" id="Shape" fill="#0074BD"></path>
            <path d="M62.2849425,94.3334135 L62,94.3334135 L62,94.0002406 L62.7673563,94.0002406 L62.7673563,94.3334135 L62.4835632,94.3334135 L62.4835632,96 L62.2848276,96 L62.2848276,94.3334135 L62.2849425,94.3334135 Z M63.8171264,94.4178494 L63.8134483,94.4178494 L63.5305747,95.9997594 L63.4004598,95.9997594 L63.1193103,94.4178494 L63.1164368,94.4178494 L63.1164368,95.9997594 L62.9281609,95.9997594 L62.9281609,94 L63.2042529,94 L63.4644828,95.4156844 L63.7255172,94 L64,94 L64,95.9997594 L63.8172414,95.9997594 L63.8172414,94.4178494 L63.8171264,94.4178494 Z" id="Shape" fill="#EA2D2E"></path>
            <path d="M21.0988438,108.405521 C19.6855975,109.581807 18.1911577,110.243313 16.8497152,110.243313 C14.9389974,110.243313 13.9026291,109.140921 13.9026291,107.376669 C13.9026291,105.466928 15.0122742,104.069139 19.4560094,104.069139 L21.0988438,104.069139 L21.0988438,108.405521 Z M25,112.631063 L25,99.5501447 C25,96.2063752 23.0139803,94 18.2279802,94 C15.4353643,94 12.9868544,94.6629202 10.9964159,95.5070386 L11.5691894,97.8239005 C13.1369059,97.2711134 15.1641668,96.757748 17.1546053,96.757748 C19.9122398,96.757748 21.0988438,97.8239005 21.0988438,100.029038 L21.0988438,101.68298 L19.720763,101.68298 C13.0222039,101.68298 10,104.177328 10,107.929633 C10,111.162032 11.9919113,113 15.7415431,113 C18.1512053,113 19.9521922,112.044511 21.6333219,110.646191 L21.9395007,112.631063 L25,112.631063 Z" id="Shape" fill="#EA2D2E"></path>
            <path d="M38.9719359,113 L33.9932056,113 L28,94 L32.3482632,94 L36.0683204,105.675137 L36.8956906,109.183001 C38.7733369,104.109273 40.1049301,98.9578945 40.7708209,94 L45,94 C43.8690785,100.256111 41.8286338,107.123882 38.9719359,113 Z" id="Shape" fill="#EA2D2E"></path>
            <path d="M58.0980818,108.405521 C56.6804241,109.581807 55.1858179,110.243313 53.8482383,110.243313 C51.9370421,110.243313 50.9008137,109.140921 50.9008137,107.376669 C50.9008137,105.466928 52.0125179,104.069139 56.4517875,104.069139 L58.0978977,104.069139 L58.0978977,108.405521 L58.0980818,108.405521 Z M62,112.631063 L62,99.5501447 C62,96.2063752 60.0085417,94 55.2276058,94 C52.4316851,94 49.984058,94.6629202 47.9938883,95.5070386 L48.5675049,97.8239005 C50.1357461,97.2711134 52.1654946,96.757748 54.1554803,96.757748 C56.909429,96.757748 58.0978977,97.8239005 58.0978977,100.029038 L58.0978977,101.68298 L56.7200029,101.68298 C50.0208755,101.68298 47,104.177328 47,107.929633 C47,111.162032 48.9888811,113 52.7378226,113 C55.1491845,113 56.9464305,112.044511 58.6319355,110.646191 L58.9400979,112.631063 L62,112.631063 Z" id="Shape" fill="#EA2D2E"></path>
            <path d="M6.59307514,115.442763 C5.51561663,117.031623 3.77315724,118.290318 1.86721399,119 L0,116.780172 C1.45190077,116.027621 2.69552026,114.814677 3.27413885,113.685309 C3.77315724,112.678605 3.98090309,111.384606 3.98090309,108.286862 L3.98090309,87 L8,87 L8,107.993442 C8,112.136437 7.6723184,113.811395 6.59307514,115.442763 Z" id="Shape" fill="#EA2D2E"></path>
        </g>
    </g>
</svg>