<svg width="234px" height="33px" viewBox="0 0 234 33" version="1.1" xmlns="http://www.w3.org/2000/svg" xmlns:xlink="http://www.w3.org/1999/xlink">
    <!-- Generator: Sketch 50 (54983) - http://www.bohemiancoding.com/sketch -->
    <desc>Created with Sketch.</desc>
    <defs></defs>
    <g id="Page-1" stroke="none" stroke-width="1" fill="none" fill-rule="evenodd">
        <g id="microsoft-azure" fill-rule="nonzero">
            <path d="M0,4.54083288 L13.5179898,2.6806426 L13.5179898,15.7393528 L0.00124457854,15.7393528 L0,4.54083288 Z M13.5179898,17.4104716 L13.5179898,30.3215378 L0.00186686781,28.4641509 L0.00155572317,17.4110945 L13.518301,17.4110945 L13.518301,17.4104716 L13.5179898,17.4104716 Z M15.0127287,2.47537378 L33,0 L33,15.7393528 L15.0127287,15.7393528 L15.0127287,2.47537378 Z M33,17.4104716 L33,33 L15.0127287,30.5264951 L15.0127287,17.4104716 L33,17.4104716 Z" id="Shape" fill="#0DADEA"></path>
            <g id="Group" transform="translate(45.000000, 8.000000)" fill="#00ADEF">
                <path d="M19.9323708,20.6137273 L16.885618,20.6137273 L16.885618,8.2584091 C16.885618,7.24563638 16.9459888,6.00886364 17.066427,4.54300001 L17.0154607,4.54300001 C16.8252472,5.37727273 16.6574832,5.97609092 16.5118651,6.34136362 L10.9868764,20.6137273 L8.86965167,20.6137273 L3.33131461,6.44827273 C3.17659551,6.03145456 3.01277528,5.39636362 2.84106742,4.54459089 L2.79010112,4.54459089 C2.85957303,5.30822729 2.89355056,6.55486364 2.89355056,8.28545453 L2.89355056,20.6137273 L0.0530898876,20.6137273 L0.0530898876,1.52154545 L4.37764043,1.52154545 L9.24461797,14.2367273 C9.61442696,15.2129091 9.85560674,15.9415455 9.9669438,16.4200909 L10.0312584,16.4200909 C10.3497977,15.4168636 10.6076629,14.6707273 10.8057641,14.1826364 L15.7634494,1.52154545 L19.9332809,1.52154545 L19.9320674,20.6137273 L19.9323708,20.6137273 Z M25.6515168,4.11727273 C25.1612697,4.11727273 24.7404944,3.95372727 24.3931348,3.62504546 C24.0442584,3.29668182 23.8701236,2.87890909 23.8701236,2.37331818 C23.8701236,1.86772727 24.0442584,1.44581818 24.3931348,1.10790909 C24.7420112,0.771272729 25.1612697,0.601999999 25.6515168,0.601999999 C26.1587528,0.601999999 26.5901461,0.771272729 26.9426629,1.10790909 C27.2951798,1.44581818 27.4723483,1.86613636 27.4723483,2.37331818 C27.4723483,2.85186364 27.2951798,3.26295454 26.9426629,3.60468182 C26.5886292,3.94704545 26.1587528,4.11727273 25.6515168,4.11727273 Z M27.1353034,20.6137273 L24.1413371,20.6137273 L24.1413371,6.97963636 L27.1356068,6.97963636 L27.1356068,20.6137273 L27.1353034,20.6137273 Z M40.5230562,19.9878636 C39.4652022,20.6178636 38.2119775,20.9328636 36.7661124,20.9328636 C34.8039101,20.9328636 33.2203146,20.3003182 32.0153259,19.0361818 C30.8109438,17.7720454 30.2078427,16.1321364 30.2078427,14.1164546 C30.2078427,11.8707273 30.8555393,10.0672727 32.1506292,8.70418181 C33.4460225,7.34172726 35.1773595,6.66018184 37.346764,6.66018184 C38.5514495,6.66018184 39.6144607,6.87781819 40.5348876,7.3134091 L40.5348876,10.1888182 C39.6132472,9.47927274 38.6327528,9.12354547 37.592191,9.12354547 C36.3271348,9.12354547 35.2902135,9.56581819 34.481427,10.4484545 C33.6726404,11.3314091 33.2673371,12.4873636 33.2673371,13.9163182 C33.2673371,15.3277727 33.6474607,16.4417273 34.4092247,17.2581818 C35.1706854,18.0749546 36.193045,18.4831818 37.4753932,18.4831818 C38.5514495,18.4831818 39.5659213,18.0886364 40.5215393,17.2989091 L40.5230562,19.9878636 Z M51.1722808,9.9225 C50.8103594,9.62913638 50.2900786,9.48340911 49.6099214,9.48340911 C48.7234719,9.48340911 47.9829436,9.89545456 47.3892474,10.7214545 C46.7952471,11.5461818 46.4979439,12.6696818 46.4979439,14.0894091 L46.4979439,20.6137273 L43.5024608,20.6137273 L43.5024608,6.97963636 L46.4979439,6.97963636 L46.4979439,9.78886364 L46.5489103,9.78886364 C46.8413594,8.83018181 47.2909551,8.08245455 47.8976964,7.54568182 C48.5044382,7.00922729 49.182472,6.74004547 49.9308878,6.74004547 C50.4736181,6.74004547 50.8865054,6.82531819 51.1710675,6.993 L51.1722808,9.9225 Z M59.1761124,20.9328636 C57.1365506,20.9328636 55.5083595,20.2961818 54.2894159,19.0225 C53.0716852,17.7491364 52.4622137,16.0602273 52.4622137,13.9570455 C52.4622137,11.6664545 53.0965617,9.87795455 54.3667753,8.59090911 C55.6369888,7.30386363 57.3461799,6.66018184 59.4985953,6.66018184 C61.5645506,6.66018184 63.1730224,7.28636362 64.326438,8.53809092 C65.4801573,9.79013637 66.0556516,11.5245454 66.0556516,13.7432273 C66.0556516,15.9186364 65.4343482,17.6600455 64.1902249,18.9684091 C62.9476181,20.2786818 61.2763482,20.9328636 59.1761124,20.9328636 Z M59.3177864,9.12354547 C58.1473821,9.12354547 57.2217978,9.54545453 56.5428539,10.3876818 C55.8623931,11.2311818 55.5229211,12.3938182 55.5229211,13.8755909 C55.5229211,15.3045454 55.8675507,16.4296364 56.555899,17.2502273 C57.2439436,18.0708182 58.1655841,18.4815909 59.3190001,18.4815909 C60.4991124,18.4815909 61.4046743,18.0775 62.0365954,17.2705909 C62.6682137,16.4620909 62.9855393,15.3128182 62.9855393,13.8215 C62.9855393,12.3222273 62.6697302,11.1637273 62.0365954,10.3469546 C61.4034606,9.53177274 60.4975955,9.12354547 59.3177864,9.12354547 Z M68.2905844,20.188 L68.2905844,17.3259545 C69.4100224,18.2047727 70.6447417,18.6438636 71.9947416,18.6438636 C73.8028315,18.6438636 74.7056631,18.0937273 74.7056631,16.9931364 C74.7056631,16.6822727 74.6286066,16.4188182 74.4738875,16.2008636 C74.3191684,15.9832273 74.1107527,15.7900909 73.8471236,15.6224091 C73.5834945,15.4547273 73.2743595,15.3032727 72.9178989,15.1696364 C72.5599214,15.0356818 72.1625058,14.8855 71.7235282,14.7165454 C71.2213285,14.5141248 70.7319139,14.2784065 70.2582474,14.0108182 C69.8229101,13.762 69.4625056,13.4810455 69.174,13.1660455 C68.889903,12.8585637 68.6683112,12.4937654 68.5226629,12.0937727 C68.3758316,11.6950909 68.3036291,11.2283182 68.3036291,10.696 C68.3036291,10.0389545 68.4544047,9.46018181 68.7556518,8.95872726 C69.0575057,8.45695456 69.4609887,8.03536364 69.9685281,7.69459089 C70.4769775,7.35254545 71.0524718,7.09577274 71.6986517,6.92268184 C72.3524385,6.74848003 73.0245262,6.66124948 73.6990787,6.66304544 C74.9207529,6.66304544 76.0137978,6.85363636 76.9776066,7.23481819 L76.9776066,9.93745456 C76.0480787,9.28040908 74.9811236,8.95172729 73.776438,8.95172729 C73.3975279,8.95172729 73.0553258,8.99245456 72.7501347,9.07072727 C72.4446405,9.1505909 72.1837416,9.26163638 71.9686518,9.40354544 C71.7538652,9.54545453 71.586101,9.71568184 71.4653596,9.91581818 C71.3456679,10.1124235 71.2828653,10.3411959 71.2845507,10.5744545 C71.2845507,10.8675 71.3449214,11.1163182 71.4653596,11.3205909 C71.586101,11.5245454 71.7641797,11.7043182 72.0014158,11.8599091 C72.2374381,12.0155 72.5219998,12.1574091 72.8535843,12.2856364 C73.1851684,12.4141818 73.5652922,12.5548182 73.9966855,12.705 C74.5179117,12.9222797 75.0284184,13.1668446 75.526281,13.4377727 C75.9786069,13.6862727 76.3638875,13.9675455 76.6824268,14.2825455 C76.9961278,14.5901358 77.2464,14.9618892 77.4177979,15.3748636 C77.5898088,15.7872273 77.6762698,16.2781818 77.6762698,16.8458182 C77.6762698,17.5381818 77.5215507,18.1408182 77.2108988,18.6562727 C76.9014606,19.1714091 76.4873595,19.5971364 75.9722359,19.9337727 C75.4555954,20.2716818 74.8591685,20.5217727 74.1841685,20.6853182 C73.5076517,20.8504545 72.7959438,20.9315909 72.0475281,20.9315909 C70.6004496,20.9328636 69.3484384,20.6853182 68.2905844,20.188 Z M86.3893822,20.9328636 C84.3498203,20.9328636 82.7204156,20.2961818 81.5023821,19.0225 C80.2846518,17.7491364 79.6763931,16.0602273 79.6763931,13.9570455 C79.6763931,11.6664545 80.3110448,9.87795455 81.5812583,8.59090911 C82.849955,7.30386363 84.560663,6.66018184 86.7118651,6.66018184 C88.7778204,6.66018184 90.3859889,7.28636362 91.5397078,8.53809092 C92.6931234,9.79013637 93.2698315,11.5245454 93.2698315,13.7432273 C93.2698315,15.9186364 92.6485281,17.6600455 91.404708,18.9684091 C90.1608875,20.2786818 88.4881011,20.9328636 86.3893822,20.9328636 Z M86.5310562,9.12354547 C85.3603483,9.12354547 84.4347639,9.54545453 83.7546067,10.3876818 C83.0741459,11.2311818 82.734674,12.3938182 82.734674,13.8755909 C82.734674,15.3045454 83.0796068,16.4296364 83.7676518,17.2502273 C84.4560001,18.0708182 85.3773369,18.4815909 86.5310562,18.4815909 C87.7093483,18.4815909 88.6152134,18.0775 89.2483482,17.2705909 C89.881483,16.4620909 90.1972922,15.3128182 90.1972922,13.8215 C90.1972922,12.3222273 89.881483,11.1637273 89.2483482,10.3469546 C88.6152134,9.53177274 87.7093483,9.12354547 86.5310562,9.12354547 Z M103.803775,2.94636364 C103.400292,2.70709091 102.938865,2.58681818 102.422225,2.58681818 C100.967258,2.58681818 100.240989,3.43445455 100.240989,5.12972729 L100.240989,6.98059089 L103.313528,6.98059089 L103.313528,9.40354544 L100.254034,9.40354544 L100.254034,20.6137273 L97.258854,20.6137273 L97.258854,9.40354544 L95.0002583,9.40354544 L95.0002583,6.98059089 L97.258854,6.98059089 L97.258854,4.77018184 C97.258854,3.332 97.7151238,2.19895455 98.6273594,1.36881818 C99.5395954,0.538363636 100.68027,0.123454545 102.048775,0.123454545 C102.789303,0.123454545 103.373899,0.207454545 103.803775,0.376409091 L103.803775,2.94636364 Z M112.439832,20.4676818 C111.855236,20.7693182 111.084371,20.9207727 110.128753,20.9207727 C107.564663,20.9207727 106.282618,19.6512273 106.282618,17.1137273 L106.282618,9.40481816 L104.075292,9.40481816 L104.075292,6.98218181 L106.282618,6.98218181 L106.282618,3.82645455 L109.278101,2.94795454 L109.278101,6.98218181 L112.441045,6.98218181 L112.441045,9.40481816 L109.278101,9.40481816 L109.278101,16.2209091 C109.278101,17.0281364 109.419472,17.6053182 109.704034,17.9515 C109.988596,18.2976818 110.46155,18.4707727 111.123809,18.4707727 C111.631045,18.4707727 112.070326,18.3205909 112.439832,18.0176818 L112.439832,20.4676818 Z M137.845315,20.6137273 L134.476382,20.6137273 L132.811483,15.7535 L125.531191,15.7535 L123.930607,20.6137273 L120.573506,20.6137273 L127.505225,1.52154545 L130.964562,1.52154545 L137.845011,20.6137273 L137.845315,20.6137273 Z M131.997539,13.1714546 L129.429506,5.55577273 C129.352146,5.30695456 129.269629,4.90827271 129.184382,4.35781819 L129.133416,4.35781819 C129.056056,4.86372726 128.969596,5.26368184 128.874944,5.55577273 L126.33209,13.1714546 L131.997539,13.1714546 Z M149.82482,8.27177274 L142.686202,18.2031818 L149.79873,18.2031818 L149.79873,20.6137273 L138.489978,20.6137273 L138.489978,19.4552273 L145.783618,9.38986364 L139.187427,9.38986364 L139.187427,6.97931816 L149.82482,6.97931816 L149.82482,8.27177274 Z M163.882416,20.6137273 L160.888449,20.6137273 L160.888449,18.4561364 L160.837483,18.4561364 C159.968326,20.1068636 158.616809,20.9328636 156.78445,20.9328636 C153.660337,20.9328636 152.097978,18.9983182 152.097978,15.1276364 L152.097978,6.97931816 L155.093157,6.97931816 L155.093157,14.8085 C155.093157,17.2585 156.009337,18.4831818 157.843517,18.4831818 C158.729359,18.4831818 159.45836,18.1465455 160.031124,17.472 C160.603888,16.7974545 160.889663,15.9145 160.889663,14.8221818 L160.889663,6.97931816 L163.885146,6.97931816 L163.882416,20.6137273 Z M175.462382,9.9225 C175.100764,9.62913638 174.58018,9.48340911 173.900022,9.48340911 C173.013876,9.48340911 172.273045,9.89545456 171.679349,10.7214545 C171.085652,11.5461818 170.788045,12.6696818 170.788045,14.0894091 L170.788045,20.6137273 L167.793775,20.6137273 L167.793775,6.97963636 L170.788045,6.97963636 L170.788045,9.78886364 L170.839011,9.78886364 C171.131461,8.83018181 171.581056,8.08245455 172.187798,7.54568182 C172.794843,7.00922729 173.472573,6.74004547 174.220989,6.74004547 C174.762506,6.74004547 175.176607,6.82531819 175.459652,6.993 L175.462686,9.9225 L175.462382,9.9225 Z M188.797652,14.6354091 L179.786629,14.6354091 C179.820607,15.8954091 180.196786,16.8674546 180.916382,17.5515454 C181.634764,18.2343636 182.621932,18.5764091 183.879101,18.5764091 C185.290686,18.5764091 186.585775,18.1411364 187.764371,17.2718636 L187.764371,19.7606818 C186.559989,20.5421364 184.967292,20.9328636 182.987798,20.9328636 C181.042281,20.9328636 179.517843,20.3136818 178.41145,19.0753182 C177.305056,17.8369545 176.753225,16.0955455 176.753225,13.8501364 C176.753225,11.7288182 177.361483,9.99949999 178.58073,8.66377273 C179.798461,7.32804547 181.311067,6.66018184 183.118854,6.66018184 C184.926337,6.66018184 186.323663,7.25931818 187.313562,8.45695456 C188.303157,9.6549091 188.798562,11.319 188.798562,13.4498636 L188.797348,14.6354091 L188.797652,14.6354091 Z M185.905921,12.4520455 C185.892877,11.3422273 185.643809,10.4793182 185.144461,9.86299999 C184.644809,9.24668182 183.956764,8.93836364 183.078506,8.93836364 C182.21845,8.93836364 181.488236,9.26290911 180.890595,9.91040908 C180.292955,10.5579091 179.924663,11.4058636 179.786932,12.4533182 L185.905921,12.4533182 L185.905921,12.4520455 Z" id="Shape"></path>
            </g>
        </g>
    </g>
</svg>