
<svg width="207px" height="58px" viewBox="0 0 207 58" version="1.1" xmlns="http://www.w3.org/2000/svg" xmlns:xlink="http://www.w3.org/1999/xlink">
    <!-- Generator: Sketch 50 (54983) - http://www.bohemiancoding.com/sketch -->
    <desc>Created with Sketch.</desc>
    <defs>
        <linearGradient x1="1.06341024e-07%" y1="9.14856261e-08%" x2="74.5209927%" y2="64.1103734%" id="linearGradient-1">
            <stop stop-color="#5A9FD4" offset="0%"></stop>
            <stop stop-color="#306998" offset="100%"></stop>
        </linearGradient>
        <linearGradient x1="49.9999998%" y1="82.2756107%" x2="23.4426562%" y2="44.914431%" id="linearGradient-2">
            <stop stop-color="#FFD43B" offset="0%"></stop>
            <stop stop-color="#FFE873" offset="100%"></stop>
        </linearGradient>
        <radialGradient cx="49.9999909%" cy="50.0000434%" fx="49.9999909%" fy="50.0000434%" r="50.0000504%" gradientTransform="translate(0.500000,0.500000),scale(0.156250,1.000000),rotate(-89.999995),translate(-0.500000,-0.500000)" id="radialGradient-3">
            <stop stop-color="#B8B8B8" stop-opacity="0.49803922" offset="0%"></stop>
            <stop stop-color="#7F7F7F" stop-opacity="0" offset="100%"></stop>
        </radialGradient>
    </defs>
    <g id="Page-1" stroke="none" stroke-width="1" fill="none" fill-rule="evenodd">
        <g id="python-logo-inkscape" fill-rule="nonzero">
            <path d="M77.8013043,24.0297018 C77.8013043,17.8663361 76.0994541,14.7021437 72.6957538,14.5288754 C71.3414618,14.4628703 70.0191349,14.6856413 68.7327569,15.2013195 C67.7060547,15.5808565 67.0149304,15.9562711 66.6513876,16.3358081 L66.6513876,31.0470288 C68.8286357,32.4579222 70.7621968,33.1138597 72.4480665,33.0107275 C76.0155596,32.7673274 77.8013043,29.7764033 77.8013043,24.0297018 Z M82,24.2854775 C82,27.4166653 81.2888991,30.0156767 79.8587049,32.0825076 C78.2647179,34.4216166 76.0555088,35.6262371 73.2310776,35.6922464 C71.1017668,35.7623782 68.9085382,35.0734318 66.6513876,33.6295379 L66.6513876,47 L63,45.655116 L63,15.9768959 C63.5992416,15.2178219 64.3702684,14.5660068 65.3050879,14.0132015 C67.478344,12.7054446 70.1190058,12.0330005 73.2270814,12 L73.2790149,12.0536294 C76.1194266,12.0164981 78.3086632,13.2211228 79.8467205,15.663364 C81.2809068,17.9034632 82,20.7747528 82,24.2854775 Z" id="path46" fill="#646464"></path>
            <path d="M105,33.1224731 C105,37.3345563 104.578147,40.2515674 103.73444,41.873509 C102.886592,43.4954505 101.273621,44.7905214 98.8913807,45.7545825 C96.9599488,46.5159 94.8713551,46.9296609 92.6297367,47 L92.0052267,44.616741 C94.2840659,44.3064213 95.8887716,43.9960974 96.819331,43.6857778 C98.6515031,43.0651385 99.9087972,42.1134896 100.599479,40.8391045 C101.15368,39.8005666 101.426646,37.8186563 101.426646,34.8850928 L101.426646,33.9003459 C98.8417529,35.0754243 96.132782,35.6588268 93.2997416,35.6588268 C91.4386186,35.6588268 89.796692,35.0754243 88.3822404,33.9003459 C86.7940787,32.621822 86,30.9998804 86,29.0345212 L86,13.2950708 L89.780148,12 L89.780148,27.8428874 C89.780148,29.535168 90.3260793,30.8385165 91.4179375,31.7529286 C92.5097957,32.6673365 93.9242516,33.105922 95.6571639,33.072824 C97.3900761,33.0355829 99.2470621,32.3652902 101.219852,31.0536726 L101.219852,12.5709902 L105,12.5709902 L105,33.1224731 Z" id="path48" fill="#646464"></path>
            <path d="M122,36.9439363 C121.532737,36.9827486 121.104054,37 120.709666,37 C118.493374,37 116.765781,36.4695427 115.531176,35.4043142 C114.300854,34.3390856 113.683555,32.8684647 113.683555,30.9924558 L113.683555,15.4668472 L111,15.4668472 L111,12.9870659 L113.683555,12.9870659 L113.683555,6.40161975 L117.597428,5 L117.597428,12.9870659 L122,12.9870659 L122,15.4668472 L117.597428,15.4668472 L117.597428,30.8846379 C117.597428,32.3638823 117.991815,33.4118595 118.780594,34.0242598 C119.457913,34.5288422 120.533907,34.8177932 122,34.8911083 L122,36.9439363 Z" id="path50" fill="#646464"></path>
            <path d="M145,37 L141.102783,37 L141.102783,22.031993 C141.102783,20.5088857 140.744612,19.1979126 140.032544,18.1033129 C139.209608,16.8644643 138.066875,16.2450378 136.600092,16.2450378 C134.813508,16.2450378 132.579215,17.182661 129.897222,19.0579074 L129.897222,37 L126,37 L126,1.22187741 L129.897222,0 L129.897222,16.2959515 C132.387347,14.492834 135.107719,13.5891533 138.06261,13.5891533 C140.126348,13.5891533 141.797803,14.2806999 143.076974,15.6595581 C144.360414,17.0384119 145,18.7566776 145,20.8101112 L145,37 Z" id="path52" fill="#646464"></path>
            <path d="M165.81171,24.0921296 C165.81171,21.5882033 165.355649,19.5205015 164.447694,17.8846607 C163.368201,15.8911168 161.690378,14.8398162 159.422593,14.7307589 C155.230126,14.9837728 153.138078,18.1158613 153.138078,24.1183019 C153.138078,26.8708785 153.573222,29.1697765 154.451879,31.0150047 C155.573222,33.3662517 157.25523,34.5266096 159.497907,34.4873511 C163.707111,34.4524517 165.81171,30.9888324 165.81171,24.0921296 Z M170,24.1183019 C170,27.6822558 169.125524,30.648579 167.380753,33.0172757 C165.460253,35.6695177 162.807531,37 159.422593,37 C156.066947,37 153.451885,35.6695177 151.564855,33.0172757 C149.853558,30.648579 149,27.6822558 149,24.1183019 C149,20.7681033 149.924687,17.9500959 151.774058,15.655557 C153.728037,13.2214251 156.297073,12 159.4728,12 C162.648535,12 165.234304,13.2214251 167.225942,15.655557 C169.075308,17.9500959 170,20.7681033 170,24.1183019 Z" id="path54" fill="#646464"></path>
            <path d="M193,35 L189.070151,35 L189.070151,19.7376292 C189.070151,18.0631898 188.541299,16.7572097 187.483595,15.8155895 C186.425887,14.8780688 185.015615,14.4236353 183.257072,14.4604838 C181.391042,14.493237 179.615295,15.0745799 177.929849,16.2004255 L177.929849,35 L174,35 L174,15.7378058 C176.261599,14.1698124 178.342612,13.1463133 180.243036,12.667317 C182.035982,12.2210739 183.618242,12 184.981221,12 C185.914239,12 186.791357,12.0859741 187.616883,12.2579182 C189.160448,12.5977195 190.415931,13.2281922 191.383347,14.1534357 C192.462546,15.1769306 193,16.405127 193,17.8421117 L193,35 Z" id="path56" fill="#646464"></path>
            <path d="M23.3572618,2.0003872 C21.4078089,2.00935818 19.5461251,2.1740159 17.908035,2.46108162 C13.0824269,3.30539129 12.2062835,5.07260381 12.2062831,8.33164476 L12.2062831,12.6358469 L23.6097869,12.6358469 L23.6097869,14.0705809 L12.2062831,14.0705809 L7.92664642,14.0705809 C4.61247071,14.0705809 1.71048357,16.0433921 0.80277912,19.7963543 C-0.244246479,24.0981202 -0.290687756,26.782492 0.80277912,31.2742266 C1.61338092,34.6177 3.54920779,36.9999992 6.86338266,37 L10.7841678,37 L10.7841678,31.8402226 C10.7841678,28.1125879 14.0407933,24.8245056 17.908035,24.8245048 L29.2982481,24.8245048 C32.4688798,24.8245048 35.0000013,22.2390713 35,19.0855687 L35,8.33164476 C35,5.27101684 32.3928858,2.97188804 29.2982481,2.46108162 C27.3392964,2.13813207 25.3067146,1.99141623 23.3572618,2.0003872 Z M17.190332,5.4621767 C18.3682355,5.4621767 19.3301503,6.43038092 19.3301503,7.62085909 C19.3301494,8.80711762 18.3682355,9.76637879 17.190332,9.76637879 C16.0082055,9.76637837 15.0505136,8.8071172 15.0505136,7.62085909 C15.0505132,6.43038135 16.0082055,5.4621767 17.190332,5.4621767 Z" id="path1948" fill="url(#linearGradient-1)"></path>
            <path d="M36.1666341,14 L36.1666341,18.9768261 C36.1666341,22.8352922 32.845,26.082845 29.0572401,26.0828454 L17.690168,26.0828454 C14.5765365,26.0828454 12.0000004,28.7072585 12,31.7781109 L12,42.4502013 C12,45.4875397 14.6818705,47.2740682 17.690168,48.1454668 C21.2925429,49.1886346 24.7470318,49.3771615 29.0572401,48.1454668 C31.9222856,47.3285296 34.7474094,45.6844391 34.7474081,42.4502013 L34.7474081,38.1787534 L23.3803359,38.1787534 L23.3803359,36.754937 L34.7474081,36.754937 L40.4375778,36.754937 C43.7450206,36.754937 44.9775094,34.4829303 46.1277415,31.072734 C47.3158931,27.5619901 47.2653379,24.1858409 46.1277415,19.682203 C45.3103607,16.4395838 43.7492269,14 40.4375778,14 L36.1666341,14 Z M29.773485,41.0263862 C30.9532107,41.0263874 31.908956,41.9783491 31.908956,43.1555782 C31.9089551,44.3369957 30.9532094,45.297834 29.773485,45.297834 C28.5979733,45.297834 27.6380141,44.3369957 27.6380141,43.1555782 C27.6380149,41.9783491 28.597972,41.0263862 29.773485,41.0263862 Z" id="path1950" fill="url(#linearGradient-2)"></path>
            <path d="M199.621468,10 L200.305944,10 L200.305944,5.53250212 L201.927412,5.53250212 L201.927412,5 L198,5 L198,5.53250212 L199.621468,5.53250212 L199.621468,10 M202.534319,10 L203.119109,10 L203.119109,5.91977763 L204.388372,9.99948741 L205.039429,9.99948741 L206.362045,5.93360939 L206.362045,10 L207,10 L207,5 L206.156038,5 L204.710656,9.28353825 L203.477958,5 L202.534319,5 L202.534319,10" id="text3004" fill="#646464"></path>
            <path d="M41,55.5 C41.0000001,56.393164 37.9504173,57.2184815 33.0000001,57.6650635 C28.0495828,58.1116455 21.9504172,58.1116455 16.9999999,57.6650635 C12.0495827,57.2184815 8.99999991,56.393164 9,55.5 C8.99999988,54.606836 12.0495826,53.7815185 16.9999999,53.3349365 C21.9504172,52.8883545 28.0495828,52.8883545 33.0000001,53.3349365 C37.9504174,53.7815185 41.0000001,54.606836 41,55.5 Z" id="path1894" fill="url(#radialGradient-3)" opacity="0.44382022"></path>
        </g>
    </g>
</svg>