<svg width="120px" height="107px" viewBox="0 0 120 107" version="1.1" xmlns="http://www.w3.org/2000/svg" xmlns:xlink="http://www.w3.org/1999/xlink">
    <defs></defs>
    <g id="Page-1" stroke="none" stroke-width="1" fill="none" fill-rule="evenodd">
        <g id="react_icon" fill="#61DAFB" fill-rule="nonzero">
            <path d="M120,53.5122454 C120,45.5527581 110.044843,38.0096132 94.7818997,33.3318837 C98.3041174,17.7557794 96.7386873,5.3634699 89.841011,1.39597162 C88.2511211,0.465323873 86.3921728,0.0244907301 84.3620057,0.0244907301 L84.3620057,5.48592355 C85.4871586,5.48592355 86.3921728,5.70634012 87.150428,6.12268254 C90.476967,8.03295949 91.9200978,15.3067063 90.794945,24.6621653 C90.5258867,26.9642939 90.0856095,29.3888762 89.5474929,31.8624399 C84.7533632,30.6868849 79.5189564,29.7807279 74.0154912,29.1929503 C70.7134121,24.6621653 67.2890338,20.5477226 63.8401957,16.9475853 C71.8141052,9.52689403 79.2988178,5.46143282 84.3864656,5.46143282 L84.3864656,0 C84.3864656,0 84.3864656,0 84.3864656,0 C77.6600082,0 68.8544639,4.80018311 59.9510803,13.1270314 C51.0476967,4.84916457 42.2421525,0.0979629206 35.5156951,0.0979629206 L35.5156951,5.55939574 C40.578883,5.55939574 48.0880554,9.60036622 56.0619649,16.972076 C52.6375866,20.5722133 49.2132083,24.6621653 45.9600489,29.1929503 C40.4321239,29.7807279 35.1977171,30.6868849 30.4035874,31.8869306 C29.841011,29.4378576 29.4251936,27.0622568 29.1316755,24.7846189 C27.9820628,15.42916 29.4007338,8.15541314 32.7028129,6.22064546 C33.4366082,5.77981231 34.3905422,5.58388647 35.5156951,5.58388647 L35.5156951,0.122453651 C35.5156951,0.122453651 35.5156951,0.122453651 35.5156951,0.122453651 C33.4610681,0.122453651 31.6021199,0.563286793 29.9877701,1.49393454 C23.1145536,5.46143282 21.5735834,17.8292515 25.1202609,33.3563745 C9.90623726,38.0585946 0,45.5772488 0,53.5122454 C0,61.4717327 9.95515695,69.0148775 25.2181003,73.692607 C21.6958826,89.2687114 23.2613127,101.661021 30.158989,105.628519 C31.7488789,106.559167 33.6078272,107 35.6624541,107 C42.3889115,107 51.1944558,102.199817 60.0978394,93.8729686 C69.001223,102.150835 77.8067672,106.902037 84.5332246,106.902037 C86.5878516,106.902037 88.4467998,106.461204 90.0611496,105.530556 C96.9343661,101.563058 98.4753363,89.1952392 94.9286588,73.6681163 C110.093763,68.9903868 120,61.4472419 120,53.5122454 Z M88.1532817,37.1769284 C87.2482674,40.3362325 86.1231146,43.5934997 84.8512026,46.8507668 C83.848349,44.8915084 82.7965756,42.9322499 81.6469629,40.9729915 C80.52181,39.0137331 79.3232776,37.1034562 78.1247452,35.2421607 C81.5980432,35.756466 84.949042,36.393225 88.1532817,37.1769284 Z M76.9506726,63.259556 C75.0428047,66.5658045 73.0860171,69.700618 71.05585,72.6150149 C67.4113331,72.9333944 63.7178965,73.1048295 60,73.1048295 C56.3065634,73.1048295 52.6131268,72.9333944 48.9930697,72.6395056 C46.9629026,69.7251087 44.9816551,66.614786 43.0737872,63.3330282 C41.214839,60.1247425 39.5271097,56.8674754 37.9861394,53.5857176 C39.5026498,50.3039597 41.214839,47.0222019 43.0493274,43.8139162 C44.9571953,40.5076677 46.9139829,37.3728542 48.94415,34.4584573 C52.5886669,34.1400778 56.2821035,33.9686427 60,33.9686427 C63.6934366,33.9686427 67.3868732,34.1400778 71.0069303,34.4339666 C73.0370974,37.3483635 75.0183449,40.4586862 76.9262128,43.740444 C78.785161,46.9487297 80.4728903,50.2059968 82.0138606,53.4877546 C80.4728903,56.7695125 78.785161,60.0512703 76.9506726,63.259556 Z M84.8512026,60.075761 C86.1720342,63.3575189 87.2971871,66.6392767 88.2266612,69.8230716 C85.0224215,70.606775 81.6469629,71.2680247 78.1492051,71.7823301 C79.3477375,69.8965438 80.5462699,67.9617762 81.6714227,65.978027 C82.7965756,64.0187686 83.848349,62.0350195 84.8512026,60.075761 Z M60.0489197,86.2073701 C57.7741541,83.85626 55.4993885,81.2357519 53.2490828,78.3703365 C55.4504688,78.4682994 57.7007746,78.5417716 59.9755402,78.5417716 C62.2747656,78.5417716 64.5495312,78.4927901 66.7753771,78.3703365 C64.573991,81.2357519 62.2992254,83.85626 60.0489197,86.2073701 Z M41.8507949,71.7823301 C38.3774969,71.2680247 35.0264982,70.6312657 31.8222585,69.8475624 C32.7272727,66.6882582 33.8524256,63.4309911 35.1243375,60.173724 C36.1271912,62.1329824 37.1789645,64.0922408 38.3285773,66.0514992 C39.47819,68.0107576 40.6522625,69.9210346 41.8507949,71.7823301 Z M59.9266205,20.8171206 C62.2013861,23.1682307 64.4761517,25.7887388 66.7264574,28.6541543 C64.5250713,28.5561913 62.2747656,28.4827192 60,28.4827192 C57.7007746,28.4827192 55.426009,28.5317006 53.2001631,28.6541543 C55.4015491,25.7887388 57.6763147,23.1682307 59.9266205,20.8171206 Z M41.8263351,35.2421607 C40.6278027,37.1279469 39.4292703,39.0627146 38.3041174,41.0464637 C37.1789645,43.0057221 36.1271912,44.9649805 35.1243375,46.924239 C33.8035059,43.6424811 32.678353,40.3607233 31.7488789,37.1769284 C34.9531186,36.4177157 38.3285773,35.756466 41.8263351,35.2421607 Z M19.6901753,65.9045548 C11.0313901,62.2064546 5.43008561,57.35729 5.43008561,53.5122454 C5.43008561,49.6672007 11.0313901,44.7935454 19.6901753,41.1199359 C21.793722,40.2137789 24.0929474,39.4055848 26.4655524,38.6463722 C27.8597636,43.4465553 29.6942519,48.4426642 31.9690175,53.5612268 C29.7187118,58.6552987 27.9086832,63.6269169 26.5389319,68.4026093 C24.1174073,67.6433967 21.8181818,66.8107118 19.6901753,65.9045548 Z M32.849572,100.901808 C29.523033,98.9915312 28.0799022,91.7177844 29.205055,82.3623255 C29.4741133,80.0601968 29.9143905,77.6356146 30.4525071,75.1620508 C35.2466368,76.3376059 40.4810436,77.2437629 45.9845088,77.8315404 C49.2865879,82.3623255 52.7109662,86.4767681 56.1598043,90.0769055 C48.1858948,97.4975967 40.7011822,101.563058 35.6135344,101.563058 C34.5128414,101.538567 33.5833673,101.318151 32.849572,100.901808 Z M90.8683245,82.2398718 C92.0179372,91.5953307 90.5992662,98.8690776 87.2971871,100.803845 C86.5633918,101.244678 85.6094578,101.440604 84.4843049,101.440604 C79.421117,101.440604 71.9119446,97.3996338 63.9380351,90.027924 C67.3624134,86.4277867 70.7867917,82.3378347 74.0399511,77.8070497 C79.5678761,77.2192721 84.8022829,76.3131151 89.5964126,75.1130694 C90.158989,77.5866331 90.5992662,79.9622339 90.8683245,82.2398718 Z M100.285365,65.9045548 C98.1818182,66.8107118 95.8825927,67.6189059 93.5099878,68.3781186 C92.1157766,63.5779355 90.2812882,58.5818265 88.0065226,53.4632639 C90.2568284,48.369192 92.0668569,43.3975738 93.4366082,38.6218814 C95.8581329,39.3810941 98.1573583,40.2137789 100.309825,41.1199359 C108.96861,44.8180362 114.569914,49.6672007 114.569914,53.5122454 C114.545455,57.35729 108.94415,62.2309453 100.285365,65.9045548 Z" id="Shape"></path>
            <circle id="Oval" cx="60" cy="54" r="11"></circle>
        </g>
    </g>
</svg>