<?xml version="1.0" encoding="utf-8"?>
<!-- Generator: Adobe Illustrator 24.3.0, SVG Export Plug-In . SVG Version: 6.00 Build 0)  -->
<svg version="1.1" xmlns="http://www.w3.org/2000/svg" xmlns:xlink="http://www.w3.org/1999/xlink" x="0px" y="0px"
	 viewBox="0 0 500.36 177.83" style="enable-background:new 0 0 500.36 177.83;" xml:space="preserve">
<style type="text/css">
	.st0{fill:none;stroke:#000000;stroke-width:40;stroke-miterlimit:10;}
	.st1{fill:none;}
	.st2{fill:#FFFFFF;}
	.st3{stroke:#000000;stroke-width:3;stroke-miterlimit:10;}
	.st4{font-family:'Monaco';}
	.st5{font-size:82.593px;}
	.st6{letter-spacing:8;}
</style>
<g id="Design_Elements">
	<g>
		<path class="st0" d="M-397.65-57.75c68.3,46.62,67.91,129.99,19.94,200.26c-48,70.31-134.75,94.65-193.77,54.37"/>
	</g>
	<g>
		<path class="st0" d="M-160.1,306.04c0,22-18,40-40,40h-356.32c-22,0-40-18-40-40V-90.3c0-22,18-40,40-40h356.32c22,0,40,18,40,40
			V306.04z"/>
	</g>
	<line class="st0" x1="-314.66" y1="-29.46" x2="-313.68" y2="216.06"/>
	<rect x="-433.69" y="-59.95" class="st1" width="50.81" height="55.43"/>
	<rect x="-551.34" y="-56.42" class="st2" width="50.35" height="45.05"/>
	
		<rect x="-427.89" y="-76.37" transform="matrix(0.4374 -0.8993 0.8993 0.4374 -171.6873 -372.0852)" class="st2" width="89.35" height="55.07"/>
	<path class="st0" d="M-335.13-22.96c78.46-0.32,122.98,54.51,123.25,122.26c0.27,67.8-54.47,122.98-122.26,123.25"/>
	<rect x="127.02" y="-53.79" class="st1" width="50.81" height="55.43"/>
</g>
<g id="_x5B_YOUR_TEXT_HERE_x5D_">
	<text transform="matrix(1 0 0 1 -488.4475 293.5764)" class="st3 st4" style="font-size:40px; letter-spacing:4;">JD LABS</text>
	<text transform="matrix(1 0 0 1 46.5468 116.8741)" class="st3 st4 st5 st6">JD LABS</text>
</g>
</svg>
